<?xml version="1.0" encoding="utf-8"?>
<!-- Generator: Adobe Illustrator 15.1.0, SVG Export Plug-In . SVG Version: 6.00 Build 0)  -->
<!DOCTYPE svg PUBLIC "-//W3C//DTD SVG 1.1//EN" "http://www.w3.org/Graphics/SVG/1.1/DTD/svg11.dtd">
<svg version="1.1" id="Layer_1" xmlns="http://www.w3.org/2000/svg" xmlns:xlink="http://www.w3.org/1999/xlink" x="0px" y="0px"
	 width="300px" height="300px" viewBox="0 0 300 300" enable-background="new 0 0 300 300" xml:space="preserve">
<g>
	<polyline fill="#00FF00" points="194.5,92.5 6,92.5 6,12.5 194.5,12.5 194.5,92.5 	"/>
	<g>
		<path d="M206.411,44.524c0.528-0.096,1.296-0.168,2.003-0.168c1.115,0,1.848,0.216,2.339,0.66c0.396,0.36,0.636,0.912,0.636,1.547
			c0,1.055-0.672,1.763-1.511,2.051v0.036c0.611,0.216,0.983,0.792,1.175,1.631c0.264,1.127,0.456,1.907,0.624,2.219h-1.079
			c-0.133-0.24-0.313-0.923-0.528-1.931c-0.239-1.115-0.684-1.535-1.631-1.571h-0.983V52.5h-1.044V44.524z M207.455,48.207h1.067
			c1.115,0,1.823-0.612,1.823-1.535c0-1.043-0.756-1.5-1.859-1.5c-0.504,0-0.852,0.036-1.031,0.084V48.207z"/>
		<path d="M219.068,52.14c-0.468,0.18-1.403,0.444-2.495,0.444c-1.223,0-2.23-0.312-3.021-1.067
			c-0.696-0.672-1.128-1.751-1.128-3.01c0-2.411,1.667-4.174,4.378-4.174c0.936,0,1.679,0.204,2.026,0.372l-0.264,0.852
			c-0.432-0.204-0.972-0.348-1.787-0.348c-1.967,0-3.25,1.223-3.25,3.25c0,2.051,1.224,3.262,3.118,3.262
			c0.684,0,1.151-0.096,1.392-0.216v-2.411h-1.631v-0.839h2.662V52.14z"/>
		<path d="M220.655,44.536c0.456-0.108,1.188-0.18,1.907-0.18c1.044,0,1.715,0.18,2.207,0.588c0.42,0.312,0.684,0.792,0.684,1.427
			c0,0.792-0.527,1.475-1.367,1.775v0.036c0.768,0.18,1.667,0.815,1.667,2.015c0,0.696-0.276,1.235-0.695,1.619
			c-0.552,0.516-1.464,0.755-2.783,0.755c-0.72,0-1.271-0.048-1.619-0.096V44.536z M221.699,47.847h0.947
			c1.092,0,1.739-0.588,1.739-1.367c0-0.936-0.708-1.319-1.763-1.319c-0.48,0-0.756,0.036-0.924,0.072V47.847z M221.699,51.708
			c0.216,0.036,0.504,0.048,0.875,0.048c1.08,0,2.075-0.396,2.075-1.571c0-1.091-0.947-1.559-2.087-1.559h-0.863V51.708z"/>
		<path d="M229.402,44.177c-0.876,1.187-1.499,2.734-1.499,4.917c0,2.135,0.659,3.658,1.499,4.857h-0.815
			c-0.756-0.996-1.571-2.531-1.571-4.869c0.012-2.351,0.815-3.898,1.571-4.905H229.402z"/>
		<path d="M235.388,48.518c0,2.651-0.995,4.114-2.71,4.114c-1.523,0-2.566-1.427-2.591-4.006c0-2.626,1.14-4.054,2.723-4.054
			C234.44,44.572,235.388,46.036,235.388,48.518z M231.154,48.638c0,2.027,0.624,3.178,1.583,3.178c1.067,0,1.583-1.259,1.583-3.25
			c0-1.919-0.479-3.179-1.583-3.179C231.826,45.388,231.154,46.515,231.154,48.638z"/>
		<path d="M236.004,53.987c0.264-0.72,0.587-2.003,0.719-2.878l1.176-0.12c-0.288,1.02-0.815,2.351-1.151,2.915L236.004,53.987z"/>
		<path d="M241.379,52.5v-0.647l0.827-0.804c1.991-1.895,2.902-2.902,2.902-4.078c0-0.792-0.372-1.523-1.535-1.523
			c-0.707,0-1.295,0.36-1.655,0.66l-0.336-0.744c0.528-0.444,1.308-0.792,2.195-0.792c1.679,0,2.387,1.151,2.387,2.267
			c0,1.439-1.044,2.603-2.687,4.186l-0.611,0.576v0.024h3.489V52.5H241.379z"/>
		<path d="M252.188,45.592h-2.975l-0.3,2.003c0.18-0.024,0.348-0.036,0.636-0.036c0.611,0,1.199,0.12,1.679,0.42
			c0.612,0.336,1.115,1.02,1.115,1.991c0,1.523-1.211,2.663-2.902,2.663c-0.852,0-1.559-0.24-1.942-0.479l0.264-0.804
			c0.324,0.192,0.96,0.432,1.679,0.432c0.983,0,1.848-0.647,1.835-1.691c0-1.007-0.684-1.715-2.23-1.715
			c-0.456,0-0.804,0.036-1.091,0.072l0.503-3.742h3.73V45.592z"/>
		<path d="M258.345,45.592h-2.975l-0.3,2.003c0.18-0.024,0.348-0.036,0.636-0.036c0.611,0,1.199,0.12,1.679,0.42
			c0.612,0.336,1.115,1.02,1.115,1.991c0,1.523-1.211,2.663-2.902,2.663c-0.852,0-1.559-0.24-1.942-0.479l0.264-0.804
			c0.324,0.192,0.96,0.432,1.679,0.432c0.983,0,1.848-0.647,1.835-1.691c0-1.007-0.684-1.715-2.23-1.715
			c-0.456,0-0.804,0.036-1.091,0.072l0.503-3.742h3.73V45.592z"/>
		<path d="M259.498,53.987c0.265-0.72,0.588-2.003,0.72-2.878l1.176-0.12c-0.288,1.02-0.815,2.351-1.151,2.915L259.498,53.987z"/>
		<path d="M270.066,48.518c0,2.651-0.995,4.114-2.71,4.114c-1.523,0-2.566-1.427-2.591-4.006c0-2.626,1.14-4.054,2.723-4.054
			C269.119,44.572,270.066,46.036,270.066,48.518z M265.833,48.638c0,2.027,0.624,3.178,1.583,3.178c1.067,0,1.583-1.259,1.583-3.25
			c0-1.919-0.479-3.179-1.583-3.179C266.505,45.388,265.833,46.515,265.833,48.638z"/>
		<path d="M270.682,53.987c0.265-0.72,0.588-2.003,0.72-2.878l1.176-0.12c-0.288,1.02-0.815,2.351-1.151,2.915L270.682,53.987z"/>
		<path d="M278.348,45.688h-0.023l-1.355,0.732l-0.204-0.804l1.703-0.912h0.899V52.5h-1.02V45.688z"/>
		<path d="M281.914,53.951c0.839-1.188,1.499-2.734,1.499-4.893c0-2.159-0.647-3.682-1.499-4.881h0.815
			c0.755,0.983,1.571,2.53,1.571,4.881c-0.013,2.351-0.816,3.886-1.571,4.893H281.914z"/>
	</g>
	<path fill="#7FFF7F" d="M34.5,96.5H6v80h28.5V96.5 M194.5,96.5H155v80h39.5V96.5"/>
	<g>
		<path d="M206.411,128.524c0.528-0.096,1.296-0.168,2.003-0.168c1.115,0,1.848,0.216,2.339,0.66
			c0.396,0.36,0.636,0.912,0.636,1.547c0,1.055-0.672,1.763-1.511,2.051v0.036c0.611,0.216,0.983,0.792,1.175,1.631
			c0.264,1.127,0.456,1.907,0.624,2.219h-1.079c-0.133-0.24-0.313-0.923-0.528-1.931c-0.239-1.115-0.684-1.535-1.631-1.571h-0.983
			v3.502h-1.044V128.524z M207.455,132.207h1.067c1.115,0,1.823-0.612,1.823-1.535c0-1.043-0.756-1.5-1.859-1.5
			c-0.504,0-0.852,0.036-1.031,0.084V132.207z"/>
		<path d="M219.068,136.14c-0.468,0.18-1.403,0.444-2.495,0.444c-1.223,0-2.23-0.312-3.021-1.067
			c-0.696-0.672-1.128-1.751-1.128-3.01c0-2.411,1.667-4.174,4.378-4.174c0.936,0,1.679,0.204,2.026,0.372l-0.264,0.852
			c-0.432-0.204-0.972-0.348-1.787-0.348c-1.967,0-3.25,1.223-3.25,3.25c0,2.051,1.224,3.262,3.118,3.262
			c0.684,0,1.151-0.096,1.392-0.216v-2.411h-1.631v-0.839h2.662V136.14z"/>
		<path d="M220.655,128.536c0.456-0.108,1.188-0.18,1.907-0.18c1.044,0,1.715,0.18,2.207,0.588c0.42,0.312,0.684,0.792,0.684,1.427
			c0,0.792-0.527,1.475-1.367,1.775v0.036c0.768,0.18,1.667,0.815,1.667,2.015c0,0.696-0.276,1.235-0.695,1.619
			c-0.552,0.516-1.464,0.755-2.783,0.755c-0.72,0-1.271-0.048-1.619-0.096V128.536z M221.699,131.847h0.947
			c1.092,0,1.739-0.588,1.739-1.367c0-0.936-0.708-1.319-1.763-1.319c-0.48,0-0.756,0.036-0.924,0.072V131.847z M221.699,135.708
			c0.216,0.036,0.504,0.048,0.875,0.048c1.08,0,2.075-0.396,2.075-1.571c0-1.091-0.947-1.559-2.087-1.559h-0.863V135.708z"/>
		<path d="M229.402,128.177c-0.876,1.187-1.499,2.734-1.499,4.917c0,2.135,0.659,3.658,1.499,4.857h-0.815
			c-0.756-0.996-1.571-2.531-1.571-4.869c0.012-2.351,0.815-3.898,1.571-4.905H229.402z"/>
		<path d="M235.388,132.518c0,2.651-0.995,4.114-2.71,4.114c-1.523,0-2.566-1.427-2.591-4.006c0-2.626,1.14-4.054,2.723-4.054
			C234.44,128.572,235.388,130.036,235.388,132.518z M231.154,132.638c0,2.027,0.624,3.178,1.583,3.178
			c1.067,0,1.583-1.259,1.583-3.25c0-1.919-0.479-3.179-1.583-3.179C231.826,129.388,231.154,130.515,231.154,132.638z"/>
		<path d="M236.004,137.987c0.264-0.72,0.587-2.003,0.719-2.878l1.176-0.12c-0.288,1.02-0.815,2.351-1.151,2.915L236.004,137.987z"
			/>
		<path d="M241.379,136.5v-0.647l0.827-0.804c1.991-1.895,2.902-2.902,2.902-4.078c0-0.792-0.372-1.523-1.535-1.523
			c-0.707,0-1.295,0.36-1.655,0.66l-0.336-0.744c0.528-0.444,1.308-0.792,2.195-0.792c1.679,0,2.387,1.151,2.387,2.267
			c0,1.439-1.044,2.603-2.687,4.186l-0.611,0.576v0.024h3.489v0.875H241.379z"/>
		<path d="M252.188,129.592h-2.975l-0.3,2.003c0.18-0.024,0.348-0.036,0.636-0.036c0.611,0,1.199,0.12,1.679,0.42
			c0.612,0.336,1.115,1.02,1.115,1.991c0,1.523-1.211,2.663-2.902,2.663c-0.852,0-1.559-0.24-1.942-0.479l0.264-0.804
			c0.324,0.192,0.96,0.432,1.679,0.432c0.983,0,1.848-0.647,1.835-1.691c0-1.007-0.684-1.715-2.23-1.715
			c-0.456,0-0.804,0.036-1.091,0.072l0.503-3.742h3.73V129.592z"/>
		<path d="M258.345,129.592h-2.975l-0.3,2.003c0.18-0.024,0.348-0.036,0.636-0.036c0.611,0,1.199,0.12,1.679,0.42
			c0.612,0.336,1.115,1.02,1.115,1.991c0,1.523-1.211,2.663-2.902,2.663c-0.852,0-1.559-0.24-1.942-0.479l0.264-0.804
			c0.324,0.192,0.96,0.432,1.679,0.432c0.983,0,1.848-0.647,1.835-1.691c0-1.007-0.684-1.715-2.23-1.715
			c-0.456,0-0.804,0.036-1.091,0.072l0.503-3.742h3.73V129.592z"/>
		<path d="M259.498,137.987c0.265-0.72,0.588-2.003,0.72-2.878l1.176-0.12c-0.288,1.02-0.815,2.351-1.151,2.915L259.498,137.987z"/>
		<path d="M270.066,132.518c0,2.651-0.995,4.114-2.71,4.114c-1.523,0-2.566-1.427-2.591-4.006c0-2.626,1.14-4.054,2.723-4.054
			C269.119,128.572,270.066,130.036,270.066,132.518z M265.833,132.638c0,2.027,0.624,3.178,1.583,3.178
			c1.067,0,1.583-1.259,1.583-3.25c0-1.919-0.479-3.179-1.583-3.179C266.505,129.388,265.833,130.515,265.833,132.638z"/>
		<path d="M270.682,137.987c0.265-0.72,0.588-2.003,0.72-2.878l1.176-0.12c-0.288,1.02-0.815,2.351-1.151,2.915L270.682,137.987z"/>
		<path d="M276.142,135.876c0-0.432,0.3-0.756,0.72-0.756c0.419,0,0.707,0.312,0.707,0.756c0,0.432-0.288,0.755-0.731,0.755
			C276.429,136.632,276.142,136.308,276.142,135.876z"/>
		<path d="M283.195,129.592h-2.975l-0.3,2.003c0.18-0.024,0.348-0.036,0.636-0.036c0.611,0,1.199,0.12,1.679,0.42
			c0.612,0.336,1.115,1.02,1.115,1.991c0,1.523-1.211,2.663-2.902,2.663c-0.852,0-1.559-0.24-1.942-0.479l0.264-0.804
			c0.324,0.192,0.959,0.432,1.679,0.432c0.983,0,1.848-0.647,1.835-1.691c0-1.007-0.684-1.715-2.23-1.715
			c-0.456,0-0.804,0.036-1.092,0.072l0.504-3.742h3.73V129.592z"/>
		<path d="M284.397,137.951c0.839-1.188,1.499-2.734,1.499-4.893c0-2.159-0.647-3.682-1.499-4.881h0.815
			c0.755,0.983,1.571,2.53,1.571,4.881c-0.013,2.351-0.816,3.886-1.571,4.893H284.397z"/>
	</g>
	<path fill="#E5FFE5" d="M34.5,179.5H6v80h28.5V179.5 M194.5,179.5H155v80h39.5V179.5"/>
	<g>
		<path d="M206.411,211.524c0.528-0.096,1.296-0.168,2.003-0.168c1.115,0,1.848,0.216,2.339,0.659
			c0.396,0.36,0.636,0.912,0.636,1.548c0,1.056-0.672,1.763-1.511,2.051v0.036c0.611,0.216,0.983,0.791,1.175,1.631
			c0.264,1.127,0.456,1.907,0.624,2.219h-1.079c-0.133-0.24-0.313-0.924-0.528-1.931c-0.239-1.115-0.684-1.535-1.631-1.571h-0.983
			v3.502h-1.044V211.524z M207.455,215.206h1.067c1.115,0,1.823-0.611,1.823-1.535c0-1.043-0.756-1.499-1.859-1.499
			c-0.504,0-0.852,0.036-1.031,0.084V215.206z"/>
		<path d="M219.068,219.141c-0.468,0.18-1.403,0.443-2.495,0.443c-1.223,0-2.23-0.312-3.021-1.067
			c-0.696-0.672-1.128-1.751-1.128-3.011c0-2.41,1.667-4.174,4.378-4.174c0.936,0,1.679,0.204,2.026,0.372l-0.264,0.852
			c-0.432-0.204-0.972-0.348-1.787-0.348c-1.967,0-3.25,1.224-3.25,3.25c0,2.051,1.224,3.263,3.118,3.263
			c0.684,0,1.151-0.097,1.392-0.216v-2.411h-1.631v-0.84h2.662V219.141z"/>
		<path d="M220.655,211.536c0.456-0.107,1.188-0.18,1.907-0.18c1.044,0,1.715,0.18,2.207,0.588c0.42,0.312,0.684,0.791,0.684,1.427
			c0,0.792-0.527,1.476-1.367,1.775v0.036c0.768,0.18,1.667,0.815,1.667,2.015c0,0.695-0.276,1.235-0.695,1.619
			c-0.552,0.516-1.464,0.756-2.783,0.756c-0.72,0-1.271-0.048-1.619-0.097V211.536z M221.699,214.847h0.947
			c1.092,0,1.739-0.588,1.739-1.367c0-0.936-0.708-1.319-1.763-1.319c-0.48,0-0.756,0.036-0.924,0.072V214.847z M221.699,218.708
			c0.216,0.036,0.504,0.049,0.875,0.049c1.08,0,2.075-0.396,2.075-1.571c0-1.092-0.947-1.56-2.087-1.56h-0.863V218.708z"/>
		<path d="M229.402,211.177c-0.876,1.188-1.499,2.734-1.499,4.917c0,2.135,0.659,3.658,1.499,4.857h-0.815
			c-0.756-0.995-1.571-2.53-1.571-4.869c0.012-2.351,0.815-3.898,1.571-4.905H229.402z"/>
		<path d="M235.388,215.519c0,2.65-0.995,4.113-2.71,4.113c-1.523,0-2.566-1.427-2.591-4.006c0-2.626,1.14-4.054,2.723-4.054
			C234.44,211.572,235.388,213.035,235.388,215.519z M231.154,215.638c0,2.027,0.624,3.179,1.583,3.179
			c1.067,0,1.583-1.26,1.583-3.25c0-1.919-0.479-3.179-1.583-3.179C231.826,212.388,231.154,213.516,231.154,215.638z"/>
		<path d="M236.004,220.987c0.264-0.72,0.587-2.003,0.719-2.879l1.176-0.119c-0.288,1.019-0.815,2.351-1.151,2.914L236.004,220.987z
			"/>
		<path d="M241.379,219.5v-0.647l0.827-0.804c1.991-1.895,2.902-2.902,2.902-4.078c0-0.791-0.372-1.522-1.535-1.522
			c-0.707,0-1.295,0.359-1.655,0.659l-0.336-0.743c0.528-0.444,1.308-0.792,2.195-0.792c1.679,0,2.387,1.151,2.387,2.267
			c0,1.439-1.044,2.603-2.687,4.186l-0.611,0.576v0.023h3.489v0.876H241.379z"/>
		<path d="M252.188,212.592h-2.975l-0.3,2.003c0.18-0.024,0.348-0.036,0.636-0.036c0.611,0,1.199,0.12,1.679,0.42
			c0.612,0.336,1.115,1.02,1.115,1.991c0,1.522-1.211,2.662-2.902,2.662c-0.852,0-1.559-0.24-1.942-0.479l0.264-0.804
			c0.324,0.192,0.96,0.432,1.679,0.432c0.983,0,1.848-0.647,1.835-1.691c0-1.007-0.684-1.715-2.23-1.715
			c-0.456,0-0.804,0.036-1.091,0.072l0.503-3.742h3.73V212.592z"/>
		<path d="M258.345,212.592h-2.975l-0.3,2.003c0.18-0.024,0.348-0.036,0.636-0.036c0.611,0,1.199,0.12,1.679,0.42
			c0.612,0.336,1.115,1.02,1.115,1.991c0,1.522-1.211,2.662-2.902,2.662c-0.852,0-1.559-0.24-1.942-0.479l0.264-0.804
			c0.324,0.192,0.96,0.432,1.679,0.432c0.983,0,1.848-0.647,1.835-1.691c0-1.007-0.684-1.715-2.23-1.715
			c-0.456,0-0.804,0.036-1.091,0.072l0.503-3.742h3.73V212.592z"/>
		<path d="M259.498,220.987c0.265-0.72,0.588-2.003,0.72-2.879l1.176-0.119c-0.288,1.019-0.815,2.351-1.151,2.914L259.498,220.987z"
			/>
		<path d="M270.066,215.519c0,2.65-0.995,4.113-2.71,4.113c-1.523,0-2.566-1.427-2.591-4.006c0-2.626,1.14-4.054,2.723-4.054
			C269.119,211.572,270.066,213.035,270.066,215.519z M265.833,215.638c0,2.027,0.624,3.179,1.583,3.179
			c1.067,0,1.583-1.26,1.583-3.25c0-1.919-0.479-3.179-1.583-3.179C266.505,212.388,265.833,213.516,265.833,215.638z"/>
		<path d="M270.682,220.987c0.265-0.72,0.588-2.003,0.72-2.879l1.176-0.119c-0.288,1.019-0.815,2.351-1.151,2.914L270.682,220.987z"
			/>
		<path d="M276.142,218.876c0-0.432,0.3-0.755,0.72-0.755c0.419,0,0.707,0.312,0.707,0.755c0,0.433-0.288,0.756-0.731,0.756
			C276.429,219.632,276.142,219.309,276.142,218.876z"/>
		<path d="M280.832,212.688h-0.023l-1.355,0.731l-0.204-0.803l1.703-0.912h0.899v7.796h-1.02V212.688z"/>
		<path d="M284.397,220.951c0.839-1.188,1.499-2.734,1.499-4.894c0-2.158-0.647-3.682-1.499-4.881h0.815
			c0.755,0.983,1.571,2.53,1.571,4.881c-0.013,2.351-0.816,3.886-1.571,4.894H284.397z"/>
	</g>
	<path fill="#FF0000" d="M155,176.5H34.5v3H155V176.5 M155,92.5H34.5v4H155V92.5 M155,3.5H34.5v9H155V3.5"/>
	<polyline fill="#FFFF00" points="155,12.5 34.5,12.5 34.5,92.5 155,92.5 155,12.5 	"/>
	<polyline fill="#FF8000" points="155,96.5 34.5,96.5 34.5,176.5 155,176.5 155,96.5 	"/>
	<polyline fill="#FF0000" points="155,259.5 34.5,259.5 34.5,276.5 155,276.5 155,259.5 	"/>
	<polyline fill="#FF1A00" points="155,179.5 34.5,179.5 34.5,259.5 155,259.5 155,179.5 	"/>
</g>
</svg>
