<?xml version="1.0" encoding="utf-8"?>
<!-- Generator: Adobe Illustrator 15.1.0, SVG Export Plug-In . SVG Version: 6.00 Build 0)  -->
<!DOCTYPE svg PUBLIC "-//W3C//DTD SVG 1.1//EN" "http://www.w3.org/Graphics/SVG/1.1/DTD/svg11.dtd" [
	<!ENTITY ns_extend "http://ns.adobe.com/Extensibility/1.0/">
	<!ENTITY ns_ai "http://ns.adobe.com/AdobeIllustrator/10.0/">
	<!ENTITY ns_graphs "http://ns.adobe.com/Graphs/1.0/">
	<!ENTITY ns_vars "http://ns.adobe.com/Variables/1.0/">
	<!ENTITY ns_imrep "http://ns.adobe.com/ImageReplacement/1.0/">
	<!ENTITY ns_sfw "http://ns.adobe.com/SaveForWeb/1.0/">
	<!ENTITY ns_custom "http://ns.adobe.com/GenericCustomNamespace/1.0/">
	<!ENTITY ns_adobe_xpath "http://ns.adobe.com/XPath/1.0/">
]>
<svg version="1.1" xmlns:x="&ns_extend;" xmlns:i="&ns_ai;" xmlns:graph="&ns_graphs;"
	 xmlns="http://www.w3.org/2000/svg" xmlns:xlink="http://www.w3.org/1999/xlink" x="0px" y="0px" width="278.714px"
	 height="251.784px" viewBox="0 0 278.714 251.784" enable-background="new 0 0 278.714 251.784" xml:space="preserve">
<metadata>
	<sfw  xmlns="&ns_sfw;">
		<slices></slices>
		<sliceSourceBounds  height="250.757" width="278.714" x="23.976" y="-268.683" bottomLeftOrigin="true"></sliceSourceBounds>
	</sfw>
</metadata>
<pattern  x="-23.976" y="-16.899" width="36.947" height="36.35" patternUnits="userSpaceOnUse" id="New_Pattern_Swatch_2" viewBox="0 -36.35 36.947 36.35" overflow="visible">
	<g>
		<polygon fill="none" points="0,0 36.947,0 36.947,-36.35 0,-36.35 		"/>
		<polygon fill="#E0E0E0" points="18.875,-17.875 0,-17.875 0,-36.35 18.875,-36.35 		"/>
		<polygon fill="#E0E0E0" points="36.947,0 18.072,0 18.072,-18.474 36.947,-18.474 		"/>
	</g>
</pattern>
<g id="Layer_2">
	<rect y="2.805" fill="url(#New_Pattern_Swatch_2)" width="278.714" height="248.979"/>
</g>
<g id="Layer_1">
	<rect x="99.004" y="2.001" fill="#FF0000" stroke="#000000" stroke-miterlimit="10" width="176.305" height="74.027"/>
	<g>
		<g>
			<line fill="none" stroke="#000000" stroke-miterlimit="10" x1="173.703" y1="108.025" x2="173.703" y2="118.456"/>
			<g>
				<path d="M173.703,124.491c-1.054-2.84-2.852-6.363-4.756-8.547l4.756,1.72l4.754-1.72
					C176.554,118.127,174.756,121.651,173.703,124.491z"/>
			</g>
		</g>
	</g>
	<g>
		<rect x="64.221" y="129.311" fill="none" width="169.879" height="12.45"/>
		<path d="M65.286,129.95c0.532-0.126,1.387-0.21,2.228-0.21c1.218,0,2.003,0.21,2.577,0.687c0.49,0.364,0.798,0.924,0.798,1.667
			c0,0.924-0.616,1.723-1.597,2.073v0.042c0.896,0.21,1.947,0.953,1.947,2.354c0,0.813-0.322,1.442-0.812,1.891
			c-0.645,0.603-1.709,0.883-3.25,0.883c-0.84,0-1.485-0.056-1.891-0.112V129.95z M66.504,133.816h1.106
			c1.275,0,2.031-0.687,2.031-1.598c0-1.092-0.827-1.541-2.059-1.541c-0.561,0-0.882,0.042-1.079,0.084V133.816z M66.504,138.326
			c0.252,0.042,0.588,0.057,1.022,0.057c1.261,0,2.423-0.463,2.423-1.835c0-1.275-1.106-1.821-2.437-1.821h-1.009V138.326z"/>
		<path d="M77.594,137.625c0,0.589,0.028,1.163,0.098,1.625h-1.107l-0.098-0.854h-0.042c-0.378,0.532-1.107,1.009-2.073,1.009
			c-1.373,0-2.073-0.967-2.073-1.947c0-1.639,1.457-2.535,4.076-2.521v-0.14c0-0.547-0.154-1.569-1.541-1.555
			c-0.645,0-1.303,0.182-1.779,0.504l-0.28-0.826c0.561-0.351,1.387-0.589,2.241-0.589c2.073,0,2.578,1.415,2.578,2.76V137.625z
			 M76.403,135.791c-1.345-0.028-2.871,0.21-2.871,1.527c0,0.812,0.532,1.176,1.148,1.176c0.896,0,1.471-0.56,1.667-1.134
			c0.042-0.141,0.056-0.28,0.056-0.393V135.791z"/>
		<path d="M84.412,139.012c-0.322,0.154-1.036,0.393-1.947,0.393c-2.045,0-3.376-1.387-3.376-3.46c0-2.087,1.429-3.614,3.642-3.614
			c0.729,0,1.373,0.183,1.709,0.364l-0.28,0.938c-0.294-0.154-0.756-0.322-1.429-0.322c-1.555,0-2.396,1.163-2.396,2.563
			c0,1.569,1.009,2.535,2.354,2.535c0.7,0,1.163-0.168,1.513-0.322L84.412,139.012z"/>
		<path d="M87.07,135.581h0.028c0.168-0.238,0.393-0.532,0.588-0.771l2.003-2.339h1.471l-2.605,2.787l2.983,3.992h-1.513L87.701,136
			l-0.63,0.7v2.55h-1.219v-9.945h1.219V135.581z"/>
		<path d="M98.259,129.305v8.194c0,0.603,0.028,1.289,0.056,1.751h-1.093l-0.056-1.177h-0.042c-0.364,0.757-1.177,1.331-2.283,1.331
			c-1.639,0-2.914-1.387-2.914-3.446c-0.014-2.255,1.401-3.628,3.04-3.628c1.051,0,1.737,0.49,2.045,1.022h0.028v-4.048H98.259z
			 M97.04,135.23c0-0.153-0.014-0.364-0.056-0.518c-0.182-0.771-0.854-1.415-1.779-1.415c-1.275,0-2.031,1.12-2.031,2.605
			c0,1.373,0.687,2.507,2.003,2.507c0.826,0,1.583-0.56,1.807-1.471c0.042-0.168,0.056-0.336,0.056-0.532V135.23z"/>
		<path d="M100.313,134.586c0-0.799-0.014-1.485-0.056-2.115h1.079l0.056,1.345h0.042c0.308-0.911,1.064-1.485,1.891-1.485
			c0.126,0,0.224,0.015,0.336,0.028v1.162c-0.126-0.027-0.252-0.027-0.42-0.027c-0.869,0-1.485,0.645-1.653,1.568
			c-0.028,0.168-0.042,0.378-0.042,0.574v3.614h-1.233V134.586z"/>
		<path d="M110.887,135.804c0,2.508-1.751,3.601-3.375,3.601c-1.821,0-3.25-1.345-3.25-3.488c0-2.255,1.499-3.586,3.362-3.586
			C109.57,132.331,110.887,133.746,110.887,135.804z M105.522,135.875c0,1.485,0.84,2.605,2.045,2.605
			c1.177,0,2.059-1.106,2.059-2.634c0-1.148-0.574-2.591-2.031-2.591C106.152,133.255,105.522,134.6,105.522,135.875z"/>
		<path d="M112.438,134.684c0-0.868-0.028-1.569-0.056-2.213h1.093l0.07,1.162h0.028c0.49-0.826,1.303-1.303,2.409-1.303
			c1.653,0,2.886,1.387,2.886,3.432c0,2.438-1.499,3.643-3.096,3.643c-0.896,0-1.681-0.393-2.087-1.064h-0.028v3.684h-1.219V134.684
			z M113.656,136.491c0,0.183,0.014,0.351,0.056,0.505c0.224,0.854,0.966,1.442,1.849,1.442c1.302,0,2.059-1.064,2.059-2.619
			c0-1.345-0.714-2.508-2.017-2.508c-0.841,0-1.639,0.589-1.863,1.513c-0.042,0.154-0.084,0.337-0.084,0.49V136.491z"/>
		<path d="M123.497,139.25v-5.841h-0.938v-0.938h0.938v-0.322c0-0.953,0.224-1.821,0.785-2.368c0.462-0.448,1.079-0.63,1.653-0.63
			c0.448,0,0.813,0.098,1.051,0.196l-0.168,0.953c-0.182-0.084-0.42-0.154-0.784-0.154c-1.051,0-1.317,0.911-1.317,1.961v0.365
			h1.639v0.938h-1.639v5.841H123.497z"/>
		<path d="M133.413,135.804c0,2.508-1.751,3.601-3.375,3.601c-1.821,0-3.25-1.345-3.25-3.488c0-2.255,1.499-3.586,3.362-3.586
			C132.096,132.331,133.413,133.746,133.413,135.804z M128.048,135.875c0,1.485,0.84,2.605,2.045,2.605
			c1.177,0,2.059-1.106,2.059-2.634c0-1.148-0.574-2.591-2.031-2.591C128.678,133.255,128.048,134.6,128.048,135.875z"/>
		<path d="M134.963,134.586c0-0.799-0.014-1.485-0.056-2.115h1.079l0.056,1.345h0.042c0.308-0.911,1.064-1.485,1.891-1.485
			c0.126,0,0.224,0.015,0.336,0.028v1.162c-0.126-0.027-0.252-0.027-0.42-0.027c-0.869,0-1.485,0.645-1.653,1.568
			c-0.028,0.168-0.042,0.378-0.042,0.574v3.614h-1.233V134.586z"/>
		<path d="M142.509,129.305h1.219v4.258h0.028c0.435-0.756,1.219-1.232,2.312-1.232c1.695,0,2.872,1.401,2.872,3.446
			c0,2.423-1.541,3.628-3.054,3.628c-0.98,0-1.765-0.379-2.283-1.261h-0.028l-0.07,1.106h-1.051
			c0.028-0.462,0.056-1.148,0.056-1.751V129.305z M143.728,136.533c0,0.154,0.014,0.309,0.056,0.448
			c0.224,0.854,0.952,1.443,1.849,1.443c1.303,0,2.06-1.051,2.06-2.605c0-1.359-0.701-2.521-2.031-2.521
			c-0.827,0-1.611,0.588-1.863,1.513c-0.042,0.154-0.07,0.322-0.07,0.519V136.533z"/>
		<path d="M150.475,129.305h1.233v9.945h-1.233V129.305z"/>
		<path d="M159.452,137.387c0,0.715,0.014,1.331,0.056,1.863h-1.092l-0.07-1.106h-0.028c-0.308,0.546-1.037,1.261-2.241,1.261
			c-1.064,0-2.339-0.603-2.339-2.97v-3.964h1.233v3.739c0,1.289,0.406,2.172,1.513,2.172c0.826,0,1.401-0.574,1.625-1.135
			c0.07-0.168,0.112-0.393,0.112-0.631v-4.146h1.233V137.387z"/>
		<path d="M162.179,136.084c0.028,1.667,1.079,2.354,2.325,2.354c0.882,0,1.429-0.154,1.877-0.351l0.224,0.883
			c-0.434,0.196-1.19,0.435-2.269,0.435c-2.087,0-3.334-1.387-3.334-3.432c0-2.046,1.205-3.643,3.18-3.643
			c2.227,0,2.802,1.934,2.802,3.18c0,0.252-0.014,0.435-0.042,0.574H162.179z M165.793,135.203c0.014-0.771-0.322-1.989-1.709-1.989
			c-1.261,0-1.793,1.135-1.891,1.989H165.793z"/>
		<path d="M171.474,134.586c0-0.799-0.014-1.485-0.056-2.115h1.079l0.056,1.345h0.042c0.308-0.911,1.064-1.485,1.891-1.485
			c0.126,0,0.224,0.015,0.336,0.028v1.162c-0.126-0.027-0.252-0.027-0.42-0.027c-0.869,0-1.485,0.645-1.653,1.568
			c-0.028,0.168-0.042,0.378-0.042,0.574v3.614h-1.233V134.586z"/>
		<path d="M176.599,136.084c0.028,1.667,1.08,2.354,2.326,2.354c0.883,0,1.43-0.154,1.877-0.351l0.225,0.883
			c-0.436,0.196-1.191,0.435-2.27,0.435c-2.087,0-3.333-1.387-3.333-3.432c0-2.046,1.204-3.643,3.179-3.643
			c2.227,0,2.801,1.934,2.801,3.18c0,0.252-0.014,0.435-0.041,0.574H176.599z M180.213,135.203c0.014-0.771-0.322-1.989-1.709-1.989
			c-1.262,0-1.793,1.135-1.891,1.989H180.213z"/>
		<path d="M187.758,139.012c-0.322,0.154-1.037,0.393-1.947,0.393c-2.045,0-3.375-1.387-3.375-3.46c0-2.087,1.428-3.614,3.641-3.614
			c0.729,0,1.373,0.183,1.709,0.364l-0.279,0.938c-0.295-0.154-0.756-0.322-1.43-0.322c-1.555,0-2.395,1.163-2.395,2.563
			c0,1.569,1.008,2.535,2.354,2.535c0.701,0,1.162-0.168,1.514-0.322L187.758,139.012z"/>
		<path d="M190.864,130.846v1.625h1.766v0.938h-1.766v3.655c0,0.841,0.238,1.317,0.924,1.317c0.336,0,0.533-0.028,0.715-0.084
			l0.057,0.938c-0.238,0.084-0.617,0.168-1.094,0.168c-0.574,0-1.035-0.196-1.33-0.519c-0.336-0.378-0.477-0.98-0.477-1.779v-3.697
			h-1.051v-0.938h1.051v-1.261L190.864,130.846z"/>
		<path d="M198.776,137.625c0,0.589,0.027,1.163,0.098,1.625h-1.107l-0.098-0.854h-0.041c-0.379,0.532-1.107,1.009-2.074,1.009
			c-1.373,0-2.072-0.967-2.072-1.947c0-1.639,1.457-2.535,4.076-2.521v-0.14c0-0.547-0.154-1.569-1.541-1.555
			c-0.645,0-1.303,0.182-1.779,0.504l-0.279-0.826c0.559-0.351,1.387-0.589,2.24-0.589c2.074,0,2.578,1.415,2.578,2.76V137.625z
			 M197.584,135.791c-1.344-0.028-2.871,0.21-2.871,1.527c0,0.812,0.531,1.176,1.148,1.176c0.896,0,1.471-0.56,1.666-1.134
			c0.043-0.141,0.057-0.28,0.057-0.393V135.791z"/>
		<path d="M200.76,134.306c0-0.715-0.014-1.275-0.055-1.835h1.092l0.07,1.12h0.027c0.336-0.63,1.121-1.261,2.242-1.261
			c0.938,0,2.395,0.561,2.395,2.886v4.034h-1.232v-3.908c0-1.093-0.406-2.003-1.568-2.003c-0.799,0-1.43,0.574-1.654,1.261
			c-0.055,0.154-0.084,0.364-0.084,0.574v4.076h-1.232V134.306z"/>
		<path d="M214.329,138.256c0,1.568-0.32,2.507-0.965,3.109c-0.674,0.603-1.625,0.813-2.48,0.813c-0.813,0-1.709-0.196-2.254-0.561
			l0.307-0.952c0.449,0.294,1.148,0.546,1.99,0.546c1.26,0,2.186-0.658,2.186-2.381v-0.743h-0.029
			c-0.363,0.631-1.105,1.135-2.156,1.135c-1.682,0-2.887-1.429-2.887-3.306c0-2.297,1.5-3.586,3.068-3.586
			c1.176,0,1.807,0.603,2.115,1.163h0.027l0.043-1.022h1.092c-0.041,0.476-0.057,1.036-0.057,1.849V138.256z M213.096,135.146
			c0-0.21-0.014-0.392-0.07-0.546c-0.223-0.729-0.811-1.316-1.723-1.316c-1.176,0-2.016,0.994-2.016,2.563
			c0,1.331,0.686,2.438,2.002,2.438c0.771,0,1.457-0.476,1.709-1.261c0.07-0.21,0.098-0.448,0.098-0.658V135.146z"/>
		<path d="M216.356,129.305h1.232v9.945h-1.232V129.305z"/>
		<path d="M220.346,136.084c0.029,1.667,1.078,2.354,2.326,2.354c0.883,0,1.428-0.154,1.877-0.351l0.225,0.883
			c-0.436,0.196-1.191,0.435-2.27,0.435c-2.088,0-3.334-1.387-3.334-3.432c0-2.046,1.205-3.643,3.18-3.643
			c2.227,0,2.801,1.934,2.801,3.18c0,0.252-0.014,0.435-0.041,0.574H220.346z M223.961,135.203c0.014-0.771-0.322-1.989-1.709-1.989
			c-1.262,0-1.793,1.135-1.893,1.989H223.961z"/>
	</g>
	<g opacity="0.51">
		<rect x="114.278" y="11.909" fill="#00FF00" stroke="#000000" stroke-miterlimit="10" width="101.392" height="74.027"/>
		<rect x="157.462" y="27.572" fill="#0000FF" stroke="#000000" stroke-miterlimit="10" width="101.392" height="74.027"/>
	</g>
	<g>
		<g>
			<polyline fill="none" stroke="#000000" stroke-miterlimit="10" points="108.241,10.328 108.241,8.828 109.741,8.828 			"/>
			
				<line fill="none" stroke="#000000" stroke-miterlimit="10" stroke-dasharray="2.9572,2.9572" x1="112.698" y1="8.828" x2="259.078" y2="8.828"/>
			<polyline fill="none" stroke="#000000" stroke-miterlimit="10" points="260.556,8.828 262.056,8.828 262.056,10.328 			"/>
			
				<line fill="none" stroke="#000000" stroke-miterlimit="10" stroke-dasharray="2.9606,2.9606" x1="262.056" y1="13.288" x2="262.056" y2="100.626"/>
			<polyline fill="none" stroke="#000000" stroke-miterlimit="10" points="262.056,102.107 262.056,103.607 260.556,103.607 			"/>
			
				<line fill="none" stroke="#000000" stroke-miterlimit="10" stroke-dasharray="2.9572,2.9572" x1="257.599" y1="103.607" x2="111.22" y2="103.607"/>
			<polyline fill="none" stroke="#000000" stroke-miterlimit="10" points="109.741,103.607 108.241,103.607 108.241,102.107 			"/>
			
				<line fill="none" stroke="#000000" stroke-miterlimit="10" stroke-dasharray="2.9606,2.9606" x1="108.241" y1="99.146" x2="108.241" y2="11.808"/>
		</g>
	</g>
	<g>
		<path d="M197.533,112.779c0,1.343-0.275,2.147-0.827,2.663c-0.576,0.516-1.392,0.696-2.123,0.696c-0.696,0-1.464-0.168-1.931-0.48
			l0.264-0.815c0.384,0.252,0.983,0.468,1.703,0.468c1.079,0,1.871-0.564,1.871-2.039v-0.636h-0.024
			c-0.312,0.54-0.947,0.972-1.847,0.972c-1.439,0-2.471-1.224-2.471-2.831c0-1.967,1.283-3.07,2.626-3.07
			c1.008,0,1.548,0.516,1.812,0.996h0.023l0.036-0.875h0.936c-0.036,0.408-0.048,0.887-0.048,1.583V112.779z M196.477,110.116
			c0-0.18-0.012-0.336-0.06-0.468c-0.192-0.624-0.695-1.127-1.476-1.127c-1.007,0-1.727,0.852-1.727,2.195
			c0,1.14,0.587,2.087,1.715,2.087c0.659,0,1.247-0.408,1.463-1.079c0.061-0.18,0.084-0.384,0.084-0.564V110.116z"/>
		<path d="M199.204,109.637c0-0.684-0.013-1.271-0.049-1.811h0.924l0.048,1.151h0.036c0.264-0.78,0.911-1.271,1.619-1.271
			c0.108,0,0.192,0.012,0.288,0.024v0.996c-0.108-0.024-0.216-0.024-0.36-0.024c-0.743,0-1.271,0.552-1.415,1.343
			c-0.023,0.144-0.036,0.324-0.036,0.492v3.094h-1.055V109.637z"/>
		<path d="M208.261,110.68c0,2.146-1.499,3.082-2.891,3.082c-1.56,0-2.782-1.151-2.782-2.986c0-1.931,1.283-3.07,2.878-3.07
			C207.133,107.706,208.261,108.917,208.261,110.68z M203.667,110.74c0,1.271,0.72,2.231,1.751,2.231
			c1.008,0,1.763-0.947,1.763-2.255c0-0.983-0.491-2.219-1.738-2.219C204.208,108.497,203.667,109.648,203.667,110.74z"/>
		<path d="M214.453,112.035c0,0.612,0.013,1.14,0.049,1.595h-0.936l-0.061-0.947h-0.023c-0.265,0.467-0.888,1.079-1.919,1.079
			c-0.912,0-2.003-0.516-2.003-2.542v-3.394h1.055v3.202c0,1.104,0.349,1.859,1.296,1.859c0.707,0,1.199-0.492,1.391-0.971
			c0.061-0.144,0.097-0.336,0.097-0.54v-3.55h1.055V112.035z"/>
		<path d="M216.208,109.721c0-0.744-0.024-1.343-0.049-1.895h0.936l0.061,0.995h0.023c0.42-0.708,1.115-1.115,2.063-1.115
			c1.415,0,2.471,1.188,2.471,2.938c0,2.087-1.283,3.118-2.651,3.118c-0.768,0-1.438-0.336-1.786-0.912h-0.024v3.154h-1.043V109.721
			z M217.25,111.268c0,0.156,0.012,0.3,0.048,0.432c0.192,0.732,0.828,1.235,1.583,1.235c1.115,0,1.764-0.911,1.764-2.243
			c0-1.151-0.612-2.147-1.728-2.147c-0.72,0-1.403,0.504-1.595,1.295c-0.036,0.132-0.072,0.288-0.072,0.42V111.268z"/>
		<path d="M229.658,112.239c0,0.503,0.024,0.995,0.084,1.391h-0.947l-0.084-0.731h-0.036c-0.323,0.456-0.947,0.863-1.775,0.863
			c-1.175,0-1.774-0.828-1.774-1.667c0-1.403,1.247-2.171,3.49-2.159v-0.12c0-0.468-0.132-1.343-1.319-1.331
			c-0.552,0-1.115,0.156-1.523,0.432l-0.24-0.708c0.48-0.3,1.188-0.504,1.919-0.504c1.775,0,2.207,1.211,2.207,2.363V112.239z
			 M228.638,110.668c-1.151-0.024-2.458,0.18-2.458,1.307c0,0.696,0.455,1.008,0.983,1.008c0.768,0,1.259-0.48,1.427-0.972
			c0.036-0.12,0.048-0.24,0.048-0.336V110.668z"/>
		<path d="M231.364,105.115h1.055v8.515h-1.055V105.115z"/>
		<path d="M234.196,109.721c0-0.744-0.024-1.343-0.049-1.895h0.936l0.061,0.995h0.023c0.42-0.708,1.115-1.115,2.063-1.115
			c1.415,0,2.471,1.188,2.471,2.938c0,2.087-1.283,3.118-2.651,3.118c-0.768,0-1.438-0.336-1.786-0.912h-0.024v3.154h-1.043V109.721
			z M235.239,111.268c0,0.156,0.012,0.3,0.048,0.432c0.192,0.732,0.828,1.235,1.583,1.235c1.115,0,1.764-0.911,1.764-2.243
			c0-1.151-0.612-2.147-1.728-2.147c-0.72,0-1.403,0.504-1.595,1.295c-0.036,0.132-0.072,0.288-0.072,0.42V111.268z"/>
		<path d="M241.024,105.115h1.055v3.634h0.024c0.168-0.3,0.432-0.576,0.756-0.755c0.312-0.18,0.684-0.288,1.079-0.288
			c0.779,0,2.026,0.48,2.026,2.471v3.454h-1.055v-3.334c0-0.936-0.348-1.715-1.344-1.715c-0.684,0-1.211,0.48-1.415,1.043
			c-0.06,0.156-0.072,0.312-0.072,0.504v3.502h-1.055V105.115z"/>
		<path d="M251.761,112.239c0,0.503,0.024,0.995,0.084,1.391h-0.947l-0.084-0.731h-0.036c-0.323,0.456-0.947,0.863-1.775,0.863
			c-1.175,0-1.774-0.828-1.774-1.667c0-1.403,1.247-2.171,3.49-2.159v-0.12c0-0.468-0.132-1.343-1.319-1.331
			c-0.552,0-1.115,0.156-1.523,0.432l-0.24-0.708c0.48-0.3,1.188-0.504,1.919-0.504c1.775,0,2.207,1.211,2.207,2.363V112.239z
			 M250.742,110.668c-1.151-0.024-2.458,0.18-2.458,1.307c0,0.696,0.455,1.008,0.983,1.008c0.768,0,1.259-0.48,1.427-0.972
			c0.036-0.12,0.048-0.24,0.048-0.336V110.668z"/>
		<path d="M255.616,109.588v-0.719h6.188v0.719H255.616z M255.616,111.939v-0.72h6.188v0.72H255.616z"/>
		<path d="M265.458,113.007c0-0.432,0.3-0.756,0.72-0.756c0.419,0,0.707,0.312,0.707,0.756c0,0.432-0.288,0.755-0.731,0.755
			C265.745,113.762,265.458,113.438,265.458,113.007z"/>
		<path d="M272.509,106.722h-2.975l-0.3,2.003c0.18-0.024,0.348-0.036,0.636-0.036c0.611,0,1.199,0.12,1.679,0.42
			c0.612,0.336,1.115,1.02,1.115,1.991c0,1.523-1.211,2.663-2.902,2.663c-0.852,0-1.559-0.24-1.942-0.479l0.264-0.804
			c0.324,0.192,0.959,0.432,1.679,0.432c0.983,0,1.848-0.647,1.835-1.691c0-1.007-0.684-1.715-2.23-1.715
			c-0.456,0-0.804,0.036-1.092,0.072l0.504-3.742h3.73V106.722z"/>
	</g>
	<g>
		<rect x="3.814" y="2.805" fill="none" width="96.059" height="10.046"/>
		<path d="M4.879,3.43c0.617-0.112,1.513-0.196,2.339-0.196c1.303,0,2.157,0.252,2.731,0.771c0.462,0.42,0.743,1.064,0.743,1.807
			c0,1.232-0.785,2.059-1.765,2.395v0.042C9.642,8.5,10.076,9.173,10.3,10.153c0.308,1.316,0.532,2.227,0.729,2.591H9.768
			c-0.154-0.28-0.364-1.079-0.616-2.255c-0.28-1.303-0.798-1.793-1.905-1.835H6.098v4.09H4.879V3.43z M6.098,7.73h1.247
			c1.303,0,2.129-0.714,2.129-1.793c0-1.219-0.883-1.751-2.171-1.751c-0.588,0-0.995,0.042-1.205,0.098V7.73z"/>
		<path d="M19.653,12.324c-0.546,0.21-1.639,0.519-2.914,0.519c-1.429,0-2.605-0.364-3.53-1.247
			c-0.812-0.785-1.316-2.045-1.316-3.516c0-2.815,1.947-4.875,5.113-4.875c1.092,0,1.961,0.238,2.367,0.434l-0.308,0.995
			c-0.504-0.238-1.135-0.406-2.087-0.406c-2.297,0-3.796,1.429-3.796,3.796c0,2.396,1.429,3.81,3.642,3.81
			c0.798,0,1.345-0.112,1.625-0.252V8.767h-1.905v-0.98h3.11V12.324z"/>
		<path d="M21.497,3.444c0.532-0.126,1.387-0.21,2.228-0.21c1.218,0,2.003,0.21,2.577,0.687c0.49,0.364,0.798,0.924,0.798,1.667
			c0,0.924-0.616,1.723-1.597,2.073v0.042c0.896,0.21,1.947,0.953,1.947,2.354c0,0.813-0.322,1.443-0.812,1.891
			c-0.645,0.602-1.709,0.882-3.25,0.882c-0.84,0-1.485-0.056-1.891-0.112V3.444z M22.716,7.31h1.106
			c1.275,0,2.031-0.686,2.031-1.597c0-1.093-0.826-1.541-2.059-1.541c-0.56,0-0.882,0.042-1.079,0.084V7.31z M22.716,11.82
			c0.252,0.042,0.588,0.056,1.022,0.056c1.261,0,2.423-0.462,2.423-1.835c0-1.274-1.106-1.821-2.437-1.821h-1.009V11.82z"/>
		<path d="M31.705,3.023c-1.022,1.387-1.751,3.194-1.751,5.743c0,2.493,0.771,4.272,1.751,5.673h-0.953
			c-0.882-1.163-1.835-2.956-1.835-5.687c0.014-2.746,0.953-4.552,1.835-5.729H31.705z"/>
		<path d="M32.627,12.745v-0.756l0.966-0.938c2.326-2.213,3.39-3.39,3.39-4.763c0-0.924-0.435-1.779-1.793-1.779
			c-0.827,0-1.513,0.42-1.933,0.771L32.865,4.41c0.616-0.518,1.527-0.924,2.563-0.924c1.961,0,2.788,1.345,2.788,2.647
			c0,1.681-1.219,3.04-3.138,4.888l-0.714,0.672v0.028h4.076v1.022H32.627z"/>
		<path d="M45.244,4.676H41.77l-0.35,2.339c0.21-0.028,0.406-0.042,0.742-0.042c0.714,0,1.401,0.14,1.961,0.49
			c0.714,0.392,1.303,1.19,1.303,2.325c0,1.779-1.415,3.11-3.39,3.11c-0.995,0-1.821-0.28-2.269-0.561l0.308-0.938
			c0.378,0.224,1.121,0.504,1.961,0.504c1.149,0,2.157-0.756,2.143-1.975c0-1.177-0.798-2.003-2.605-2.003
			c-0.533,0-0.939,0.042-1.275,0.084l0.588-4.371h4.356V4.676z"/>
		<path d="M52.425,4.676h-3.474l-0.35,2.339c0.21-0.028,0.406-0.042,0.742-0.042c0.714,0,1.401,0.14,1.961,0.49
			c0.714,0.392,1.303,1.19,1.303,2.325c0,1.779-1.415,3.11-3.39,3.11c-0.995,0-1.821-0.28-2.269-0.561l0.308-0.938
			c0.378,0.224,1.121,0.504,1.961,0.504c1.149,0,2.157-0.756,2.143-1.975c0-1.177-0.798-2.003-2.605-2.003
			c-0.533,0-0.939,0.042-1.275,0.084l0.588-4.371h4.356V4.676z"/>
		<path d="M53.766,14.481c0.308-0.84,0.687-2.339,0.84-3.362l1.373-0.14c-0.336,1.191-0.953,2.746-1.345,3.404L53.766,14.481z"/>
		<path d="M66.103,8.094c0,3.096-1.163,4.805-3.166,4.805c-1.779,0-2.998-1.667-3.025-4.679c0-3.068,1.331-4.734,3.18-4.734
			C64.996,3.486,66.103,5.194,66.103,8.094z M61.158,8.234c0,2.367,0.729,3.712,1.849,3.712c1.247,0,1.849-1.471,1.849-3.796
			c0-2.241-0.56-3.712-1.849-3.712C61.942,4.438,61.158,5.755,61.158,8.234z"/>
		<path d="M66.813,14.481c0.308-0.84,0.687-2.339,0.84-3.362l1.373-0.14c-0.336,1.191-0.953,2.746-1.345,3.404L66.813,14.481z"/>
		<path d="M79.15,8.094c0,3.096-1.163,4.805-3.166,4.805c-1.779,0-2.998-1.667-3.025-4.679c0-3.068,1.331-4.734,3.18-4.734
			C78.043,3.486,79.15,5.194,79.15,8.094z M74.206,8.234c0,2.367,0.729,3.712,1.849,3.712c1.247,0,1.849-1.471,1.849-3.796
			c0-2.241-0.56-3.712-1.849-3.712C74.99,4.438,74.206,5.755,74.206,8.234z"/>
		<path d="M79.917,14.439c0.98-1.387,1.751-3.194,1.751-5.715c0-2.521-0.756-4.3-1.751-5.701h0.953
			c0.882,1.148,1.835,2.956,1.835,5.701c-0.014,2.745-0.953,4.538-1.835,5.715H79.917z"/>
	</g>
	<g>
		<g>
			<path fill="none" stroke="#000000" stroke-miterlimit="10" d="M57.795,15.296c0,8.309,15.264,15.175,35.175,16.343"/>
			<g>
				<path d="M99.004,31.815c-2.88,0.938-6.473,2.593-8.732,4.407l1.91-4.683l-1.527-4.82C92.761,28.71,96.209,30.648,99.004,31.815z
					"/>
			</g>
		</g>
	</g>
	<g>
		<rect x="3.815" y="34.922" fill="none" width="96.059" height="10.046"/>
		<path d="M4.879,35.547c0.617-0.112,1.513-0.196,2.339-0.196c1.303,0,2.157,0.252,2.731,0.771c0.462,0.42,0.743,1.064,0.743,1.807
			c0,1.232-0.785,2.059-1.765,2.395v0.042c0.714,0.252,1.148,0.925,1.373,1.905c0.308,1.316,0.532,2.227,0.729,2.591H9.768
			c-0.154-0.28-0.364-1.079-0.616-2.255c-0.28-1.303-0.798-1.793-1.905-1.835H6.098v4.09H4.879V35.547z M6.098,39.848h1.247
			c1.303,0,2.129-0.714,2.129-1.793c0-1.219-0.883-1.751-2.171-1.751c-0.588,0-0.995,0.042-1.205,0.098V39.848z"/>
		<path d="M19.653,44.442c-0.546,0.21-1.639,0.519-2.914,0.519c-1.429,0-2.605-0.364-3.53-1.247
			c-0.812-0.785-1.316-2.045-1.316-3.516c0-2.815,1.947-4.875,5.113-4.875c1.092,0,1.961,0.238,2.367,0.434l-0.308,0.995
			c-0.504-0.238-1.135-0.406-2.087-0.406c-2.297,0-3.796,1.429-3.796,3.796c0,2.396,1.429,3.81,3.642,3.81
			c0.798,0,1.345-0.112,1.625-0.252v-2.815h-1.905v-0.98h3.11V44.442z"/>
		<path d="M21.497,35.562c0.532-0.126,1.387-0.21,2.228-0.21c1.218,0,2.003,0.21,2.577,0.687c0.49,0.364,0.798,0.924,0.798,1.667
			c0,0.924-0.616,1.723-1.597,2.073v0.042c0.896,0.21,1.947,0.953,1.947,2.354c0,0.813-0.322,1.443-0.812,1.891
			c-0.645,0.602-1.709,0.882-3.25,0.882c-0.84,0-1.485-0.056-1.891-0.112V35.562z M22.716,39.427h1.106
			c1.275,0,2.031-0.686,2.031-1.597c0-1.093-0.826-1.541-2.059-1.541c-0.56,0-0.882,0.042-1.079,0.084V39.427z M22.716,43.938
			c0.252,0.042,0.588,0.056,1.022,0.056c1.261,0,2.423-0.462,2.423-1.835c0-1.274-1.106-1.821-2.437-1.821h-1.009V43.938z"/>
		<path d="M31.705,35.141c-1.022,1.387-1.751,3.194-1.751,5.743c0,2.493,0.771,4.272,1.751,5.673h-0.953
			c-0.882-1.163-1.835-2.956-1.835-5.687c0.014-2.746,0.953-4.552,1.835-5.729H31.705z"/>
		<path d="M38.692,40.212c0,3.096-1.163,4.805-3.166,4.805c-1.779,0-2.998-1.667-3.025-4.679c0-3.068,1.331-4.734,3.18-4.734
			C37.585,35.604,38.692,37.312,38.692,40.212z M33.748,40.352c0,2.367,0.729,3.712,1.849,3.712c1.247,0,1.849-1.471,1.849-3.796
			c0-2.241-0.56-3.712-1.849-3.712C34.532,36.556,33.748,37.873,33.748,40.352z"/>
		<path d="M39.402,46.599c0.308-0.84,0.687-2.339,0.84-3.362l1.373-0.14c-0.336,1.191-0.953,2.746-1.345,3.404L39.402,46.599z"/>
		<path d="M45.674,44.862v-0.756l0.966-0.938c2.325-2.213,3.39-3.39,3.39-4.763c0-0.924-0.435-1.779-1.793-1.779
			c-0.827,0-1.513,0.42-1.933,0.771l-0.392-0.869c0.616-0.518,1.527-0.924,2.563-0.924c1.961,0,2.788,1.345,2.788,2.647
			c0,1.681-1.219,3.04-3.138,4.888l-0.714,0.672v0.028h4.076v1.022H45.674z"/>
		<path d="M58.291,36.794h-3.474l-0.35,2.339c0.21-0.028,0.406-0.042,0.742-0.042c0.715,0,1.401,0.14,1.961,0.49
			c0.714,0.392,1.303,1.19,1.303,2.325c0,1.779-1.415,3.11-3.39,3.11c-0.995,0-1.821-0.28-2.269-0.561l0.308-0.938
			c0.378,0.224,1.121,0.504,1.961,0.504c1.149,0,2.157-0.756,2.143-1.975c0-1.177-0.798-2.003-2.605-2.003
			c-0.533,0-0.938,0.042-1.275,0.084l0.588-4.371h4.356V36.794z"/>
		<path d="M65.473,36.794h-3.474l-0.35,2.339c0.21-0.028,0.406-0.042,0.742-0.042c0.715,0,1.401,0.14,1.961,0.49
			c0.714,0.392,1.303,1.19,1.303,2.325c0,1.779-1.415,3.11-3.39,3.11c-0.995,0-1.821-0.28-2.269-0.561l0.308-0.938
			c0.378,0.224,1.121,0.504,1.961,0.504c1.149,0,2.157-0.756,2.143-1.975c0-1.177-0.798-2.003-2.605-2.003
			c-0.533,0-0.938,0.042-1.275,0.084l0.588-4.371h4.356V36.794z"/>
		<path d="M66.813,46.599c0.308-0.84,0.687-2.339,0.84-3.362l1.373-0.14c-0.336,1.191-0.953,2.746-1.345,3.404L66.813,46.599z"/>
		<path d="M79.15,40.212c0,3.096-1.163,4.805-3.166,4.805c-1.779,0-2.998-1.667-3.025-4.679c0-3.068,1.331-4.734,3.18-4.734
			C78.043,35.604,79.15,37.312,79.15,40.212z M74.206,40.352c0,2.367,0.729,3.712,1.849,3.712c1.247,0,1.849-1.471,1.849-3.796
			c0-2.241-0.56-3.712-1.849-3.712C74.99,36.556,74.206,37.873,74.206,40.352z"/>
		<path d="M79.917,46.557c0.98-1.387,1.751-3.194,1.751-5.715c0-2.521-0.756-4.3-1.751-5.701h0.953
			c0.882,1.148,1.835,2.956,1.835,5.701c-0.014,2.745-0.953,4.538-1.835,5.715H79.917z"/>
	</g>
	<g>
		<rect x="3.815" y="68.028" fill="none" width="96.059" height="10.046"/>
		<path d="M4.879,68.653c0.617-0.112,1.513-0.196,2.339-0.196c1.303,0,2.157,0.252,2.731,0.771c0.462,0.42,0.743,1.064,0.743,1.807
			c0,1.232-0.785,2.059-1.765,2.395v0.042c0.714,0.252,1.148,0.925,1.373,1.905c0.308,1.316,0.532,2.227,0.729,2.591H9.768
			c-0.154-0.28-0.364-1.079-0.616-2.255c-0.28-1.303-0.798-1.793-1.905-1.835H6.098v4.09H4.879V68.653z M6.098,72.953h1.247
			c1.303,0,2.129-0.714,2.129-1.793c0-1.219-0.883-1.751-2.171-1.751c-0.588,0-0.995,0.042-1.205,0.098V72.953z"/>
		<path d="M19.653,77.547c-0.546,0.21-1.639,0.519-2.914,0.519c-1.429,0-2.605-0.364-3.53-1.247
			c-0.812-0.785-1.316-2.045-1.316-3.516c0-2.815,1.947-4.875,5.113-4.875c1.092,0,1.961,0.238,2.367,0.434l-0.308,0.995
			c-0.504-0.238-1.135-0.406-2.087-0.406c-2.297,0-3.796,1.429-3.796,3.796c0,2.396,1.429,3.81,3.642,3.81
			c0.798,0,1.345-0.112,1.625-0.252V73.99h-1.905v-0.98h3.11V77.547z"/>
		<path d="M21.497,68.667c0.532-0.126,1.387-0.21,2.228-0.21c1.218,0,2.003,0.21,2.577,0.687c0.49,0.364,0.798,0.924,0.798,1.667
			c0,0.924-0.616,1.723-1.597,2.073v0.042c0.896,0.21,1.947,0.953,1.947,2.354c0,0.813-0.322,1.443-0.812,1.891
			c-0.645,0.602-1.709,0.882-3.25,0.882c-0.84,0-1.485-0.056-1.891-0.112V68.667z M22.716,72.533h1.106
			c1.275,0,2.031-0.686,2.031-1.597c0-1.093-0.826-1.541-2.059-1.541c-0.56,0-0.882,0.042-1.079,0.084V72.533z M22.716,77.043
			c0.252,0.042,0.588,0.056,1.022,0.056c1.261,0,2.423-0.462,2.423-1.835c0-1.274-1.106-1.821-2.437-1.821h-1.009V77.043z"/>
		<path d="M31.705,68.247c-1.022,1.387-1.751,3.194-1.751,5.743c0,2.493,0.771,4.272,1.751,5.673h-0.953
			c-0.882-1.163-1.835-2.956-1.835-5.687c0.014-2.746,0.953-4.552,1.835-5.729H31.705z"/>
		<path d="M38.692,73.317c0,3.096-1.163,4.805-3.166,4.805c-1.779,0-2.998-1.667-3.025-4.679c0-3.068,1.331-4.734,3.18-4.734
			C37.585,68.709,38.692,70.417,38.692,73.317z M33.748,73.458c0,2.367,0.729,3.712,1.849,3.712c1.247,0,1.849-1.471,1.849-3.796
			c0-2.241-0.56-3.712-1.849-3.712C34.532,69.661,33.748,70.978,33.748,73.458z"/>
		<path d="M39.402,79.705c0.308-0.84,0.687-2.339,0.84-3.362l1.373-0.14c-0.336,1.191-0.953,2.746-1.345,3.404L39.402,79.705z"/>
		<path d="M51.74,73.317c0,3.096-1.163,4.805-3.166,4.805c-1.779,0-2.998-1.667-3.025-4.679c0-3.068,1.331-4.734,3.18-4.734
			C50.633,68.709,51.74,70.417,51.74,73.317z M46.795,73.458c0,2.367,0.729,3.712,1.849,3.712c1.247,0,1.849-1.471,1.849-3.796
			c0-2.241-0.56-3.712-1.849-3.712C47.579,69.661,46.795,70.978,46.795,73.458z"/>
		<path d="M52.45,79.705c0.308-0.84,0.687-2.339,0.84-3.362l1.373-0.14c-0.336,1.191-0.953,2.746-1.345,3.404L52.45,79.705z"/>
		<path d="M58.722,77.968v-0.756l0.966-0.938c2.326-2.213,3.39-3.39,3.39-4.763c0-0.924-0.435-1.779-1.793-1.779
			c-0.827,0-1.513,0.42-1.933,0.771l-0.392-0.869c0.616-0.518,1.527-0.924,2.563-0.924c1.961,0,2.788,1.345,2.788,2.647
			c0,1.681-1.219,3.04-3.138,4.888l-0.714,0.672v0.028h4.076v1.022H58.722z"/>
		<path d="M71.338,69.899h-3.474l-0.35,2.339c0.21-0.028,0.406-0.042,0.742-0.042c0.714,0,1.401,0.14,1.961,0.49
			c0.714,0.392,1.303,1.19,1.303,2.325c0,1.779-1.415,3.11-3.39,3.11c-0.995,0-1.821-0.28-2.269-0.561l0.308-0.938
			c0.378,0.224,1.121,0.504,1.961,0.504c1.149,0,2.157-0.756,2.143-1.975c0-1.177-0.798-2.003-2.605-2.003
			c-0.533,0-0.939,0.042-1.275,0.084l0.588-4.371h4.356V69.899z"/>
		<path d="M78.52,69.899h-3.474l-0.35,2.339c0.21-0.028,0.406-0.042,0.742-0.042c0.714,0,1.401,0.14,1.961,0.49
			c0.714,0.392,1.303,1.19,1.303,2.325c0,1.779-1.415,3.11-3.39,3.11c-0.995,0-1.821-0.28-2.269-0.561l0.308-0.938
			c0.378,0.224,1.121,0.504,1.961,0.504c1.149,0,2.157-0.756,2.143-1.975c0-1.177-0.798-2.003-2.605-2.003
			c-0.533,0-0.939,0.042-1.275,0.084l0.588-4.371h4.356V69.899z"/>
		<path d="M79.917,79.663c0.98-1.387,1.751-3.194,1.751-5.715c0-2.521-0.756-4.3-1.751-5.701h0.953
			c0.882,1.148,1.835,2.956,1.835,5.701c-0.014,2.745-0.953,4.538-1.835,5.715H79.917z"/>
	</g>
	<g>
		<g>
			<path fill="none" stroke="#000000" stroke-miterlimit="10" d="M57.795,81.52c0,8.794,41.288,15.972,93.473,16.489"/>
			<g>
				<path d="M157.303,98.039c-2.857,1.006-6.41,2.745-8.625,4.612l1.799-4.727l-1.641-4.783
					C150.988,95.082,154.481,96.938,157.303,98.039z"/>
			</g>
		</g>
	</g>
	<g>
		<g>
			<path fill="none" stroke="#000000" stroke-miterlimit="10" d="M57.795,48.922c0,8.534,22.071,15.546,50.448,16.426"/>
			<g>
				<path d="M114.278,65.441c-2.87,0.97-6.444,2.663-8.684,4.502l1.859-4.703l-1.58-4.804
					C108.001,62.404,111.47,64.305,114.278,65.441z"/>
			</g>
		</g>
	</g>
	<rect x="57.795" y="146.062" fill="#FF0000" stroke="#000000" stroke-miterlimit="10" width="176.305" height="74.026"/>
	<g>
		<rect x="73.068" y="155.969" fill="#00FF00" stroke="#000000" stroke-miterlimit="10" width="101.392" height="74.027"/>
	</g>
</g>
</svg>
