<?xml version="1.0" encoding="utf-8"?>
<!-- Generator: Adobe Illustrator 15.1.0, SVG Export Plug-In . SVG Version: 6.00 Build 0)  -->
<!DOCTYPE svg PUBLIC "-//W3C//DTD SVG 1.1//EN" "http://www.w3.org/Graphics/SVG/1.1/DTD/svg11.dtd">
<svg version="1.1" id="Layer_1" xmlns="http://www.w3.org/2000/svg" xmlns:xlink="http://www.w3.org/1999/xlink" x="0px" y="0px"
	 width="418px" height="239px" viewBox="0 0 418 239" enable-background="new 0 0 418 239" xml:space="preserve">
<g>
	<polyline fill="#0000FF" points="49.48,23.68 177.52,23.68 177.52,144.79 49.48,144.79 49.48,23.68 	"/>
	<polyline points="49.48,23.68 49.48,24.18 177.02,24.18 177.02,144.29 49.98,144.29 49.98,23.68 49.48,23.68 49.48,24.18 
		49.48,23.68 48.98,23.68 48.98,145.29 178.02,145.29 178.02,23.18 48.98,23.18 48.98,23.68 49.48,23.68 	"/>
	<polyline fill="#FF0000" points="15.82,91 143.86,91 143.86,212.109 15.82,212.109 15.82,91 	"/>
	<polyline points="15.82,91 15.82,91.5 143.36,91.5 143.36,211.609 16.32,211.609 16.32,91 15.82,91 15.82,91.5 15.82,91 15.32,91 
		15.32,212.609 144.36,212.609 144.36,90.5 15.32,90.5 15.32,91 15.82,91 	"/>
	<polyline fill="#00FF00" points="224.541,91.5 178.02,91.5 178.02,145.29 144.36,145.29 144.36,211.609 224.541,211.609 
		224.541,91.5 	"/>
	<polyline points="177.02,91.5 144.36,91.5 144.36,144.29 177.02,144.29 177.02,91.5 	"/>
	<polyline points="178.02,91.5 177.02,91.5 177.02,144.29 144.36,144.29 144.36,145.29 178.02,145.29 178.02,91.5 	"/>
	<polyline points="143.36,91.5 97.5,91.5 97.5,211.609 143.36,211.609 143.36,91.5 	"/>
	<polyline points="144.36,91.5 97.5,91.5 143.36,91.5 143.36,211.609 144.36,211.609 144.36,145.29 144.36,144.29 144.36,91.5 	"/>
	<polyline points="225.541,90.5 178.02,90.5 178.02,91.5 224.541,91.5 224.541,211.609 144.36,211.609 144.36,212.609 
		225.541,212.609 225.541,90.5 	"/>
	<polyline points="177.02,90.5 96.5,90.5 144.36,90.5 144.36,91.5 177.02,91.5 177.02,90.5 	"/>
	<polyline points="178.02,90.5 177.02,90.5 177.02,91.5 178.02,91.5 178.02,90.5 	"/>
	<polyline points="144.36,90.5 96.5,90.5 96.5,91 97,91 96.5,91 96.5,91.5 97.5,91.5 144.36,91.5 144.36,90.5 	"/>
	<polyline points="97.5,91.5 96.5,91.5 96.5,211.609 143.36,211.609 97.5,211.609 97.5,91.5 	"/>
	<polyline points="144.36,211.609 143.36,211.609 96.5,211.609 96.5,212.609 144.36,212.609 144.36,211.609 	"/>
	<path d="M7.9,84.735h12v-1h-12V84.735z M8.4,107.305v-12h-1v12H8.4z M8.4,131.305v-12h-1v12H8.4z M8.4,155.305v-12h-1v12H8.4z
		 M8.4,179.305v-12h-1v12H8.4z M8.4,203.305v-12h-1v12H8.4z M15.176,219.529H8.4v-4.225h-1v5.225h7.776V219.529z M39.176,219.529
		h-12v1h12V219.529z M63.176,219.529h-12v1h12V219.529z M87.176,219.529h-12v1h12V219.529z M111.176,219.529h-12v1h12V219.529z
		 M135.176,219.529h-12v1h12V219.529z M159.176,219.529h-12v1h12V219.529z M183.176,219.529h-12v1h12V219.529z M207.176,219.529h-12
		v1h12V219.529z M231.176,219.529h-12v1h12V219.529z M231.141,196.494v12h1v-12H231.141z M231.141,172.494v12h1v-12H231.141z
		 M231.141,148.494v12h1v-12H231.141z M231.141,124.494v12h1v-12H231.141z M231.141,100.494v12h1v-12H231.141z M223.9,84.735h7.24
		v3.759h1v-4.759h-8.24V84.735z M199.9,84.735h12v-1h-12V84.735z M175.9,84.735h12v-1h-12V84.735z M151.9,84.735h12v-1h-12V84.735z
		 M127.9,84.735h12v-1h-12V84.735z M103.9,84.735h12v-1h-12V84.735z M79.9,84.735h12v-1h-12V84.735z M55.9,84.735h12v-1h-12V84.735z
		 M31.9,84.735h12v-1h-12V84.735z"/>
	<text transform="matrix(1 0 0 1 36.7207 231.2383)"><tspan x="0" y="0" font-family="'MyriadPro-Regular'" font-size="13.7308">g</tspan><tspan x="7.606" y="0" font-family="'MyriadPro-Regular'" font-size="13.7308">r</tspan><tspan x="11.959" y="0" font-family="'MyriadPro-Regular'" font-size="13.7308">oup isol</tspan><tspan x="57.215" y="0" font-family="'MyriadPro-Regular'" font-size="13.7308">a</tspan><tspan x="63.778" y="0" font-family="'MyriadPro-Regular'" font-size="13.7308">tion: a</tspan><tspan x="99.065" y="0" font-family="'MyriadPro-Regular'" font-size="13.7308">c</tspan><tspan x="105.135" y="0" font-family="'MyriadPro-Regular'" font-size="13.7308">cumul</tspan><tspan x="141.109" y="0" font-family="'MyriadPro-Regular'" font-size="13.7308">a</tspan><tspan x="147.673" y="0" font-family="'MyriadPro-Regular'" font-size="13.7308">t</tspan><tspan x="152.148" y="0" font-family="'MyriadPro-Regular'" font-size="13.7308">e</tspan></text>
	<text transform="matrix(1 0 0 1 299.291 16.7383)"><tspan x="0" y="0" font-family="'MyriadPro-Regular'" font-size="13.7308">back</tspan><tspan x="27.021" y="0" font-family="'MyriadPro-Regular'" font-size="13.7308">g</tspan><tspan x="34.615" y="0" font-family="'MyriadPro-Regular'" font-size="13.7308">r</tspan><tspan x="38.981" y="0" font-family="'MyriadPro-Regular'" font-size="13.7308">ound</tspan></text>
	<rect x="285.1" y="23.668" fill="#0000FF" width="128.041" height="121.109"/>
	<polygon points="285.1,23.668 285.1,24.168 412.641,24.168 412.641,144.277 285.6,144.277 285.6,23.668 285.1,23.668 285.1,24.168 
		285.1,23.668 284.6,23.668 284.6,145.277 413.641,145.277 413.641,23.168 284.6,23.168 284.6,23.668 	"/>
	<rect x="251.439" y="90.988" fill="#FF0000" width="128.041" height="121.11"/>
	<polygon points="251.439,90.988 251.439,91.488 378.98,91.488 378.98,211.598 251.939,211.598 251.939,90.988 251.439,90.988 
		251.439,91.488 251.439,90.988 250.939,90.988 250.939,212.598 379.98,212.598 379.98,90.488 250.939,90.488 250.939,90.988 	"/>
</g>
</svg>
