<?xml version="1.0" encoding="utf-8"?>
<!-- Generator: Adobe Illustrator 15.1.0, SVG Export Plug-In . SVG Version: 6.00 Build 0)  -->
<!DOCTYPE svg PUBLIC "-//W3C//DTD SVG 1.1//EN" "http://www.w3.org/Graphics/SVG/1.1/DTD/svg11.dtd" [
	<!ENTITY ns_extend "http://ns.adobe.com/Extensibility/1.0/">
	<!ENTITY ns_ai "http://ns.adobe.com/AdobeIllustrator/10.0/">
	<!ENTITY ns_graphs "http://ns.adobe.com/Graphs/1.0/">
	<!ENTITY ns_vars "http://ns.adobe.com/Variables/1.0/">
	<!ENTITY ns_imrep "http://ns.adobe.com/ImageReplacement/1.0/">
	<!ENTITY ns_sfw "http://ns.adobe.com/SaveForWeb/1.0/">
	<!ENTITY ns_custom "http://ns.adobe.com/GenericCustomNamespace/1.0/">
	<!ENTITY ns_adobe_xpath "http://ns.adobe.com/XPath/1.0/">
]>
<svg version="1.1" xmlns:x="&ns_extend;" xmlns:i="&ns_ai;" xmlns:graph="&ns_graphs;"
	 xmlns="http://www.w3.org/2000/svg" xmlns:xlink="http://www.w3.org/1999/xlink" x="0px" y="0px" width="266.667px"
	 height="136.546px" viewBox="0 0 266.667 136.546" enable-background="new 0 0 266.667 136.546" xml:space="preserve">
<metadata>
	<sfw  xmlns="&ns_sfw;">
		<slices></slices>
		<sliceSourceBounds  height="136.546" width="266.667" x="72.972" y="-143.406" bottomLeftOrigin="true"></sliceSourceBounds>
	</sfw>
</metadata>
<pattern  x="-72.972" y="-6.859" width="18.474" height="18.175" patternUnits="userSpaceOnUse" id="New_Pattern_Swatch_3" viewBox="0 -18.175 18.474 18.175" overflow="visible">
	<g>
		<polygon fill="none" points="0,0 18.474,0 18.474,-18.175 0,-18.175 		"/>
		<polygon fill="#E0E0E0" points="9.438,-8.938 0,-8.938 0,-18.175 9.438,-18.175 		"/>
		<polygon fill="#E0E0E0" points="18.474,0 9.036,0 9.036,-9.237 18.474,-9.237 		"/>
	</g>
</pattern>
<g id="Layer_2">
	<rect fill="url(#New_Pattern_Swatch_3)" width="266.667" height="136.546"/>
</g>
<g id="Layer_1">
	<rect x="72.271" y="43.264" fill="#FF0000" width="112.805" height="59.609"/>
	<g>
		<rect x="94.337" y="28.892" fill="none" width="68.674" height="17.269"/>
		<path d="M95.249,29.436c0.527-0.096,1.295-0.168,2.003-0.168c1.115,0,1.847,0.216,2.338,0.66c0.396,0.36,0.636,0.912,0.636,1.547
			c0,1.055-0.671,1.763-1.511,2.051v0.036c0.612,0.216,0.983,0.792,1.175,1.631c0.264,1.127,0.456,1.907,0.624,2.219h-1.08
			c-0.132-0.24-0.312-0.923-0.528-1.931c-0.24-1.115-0.684-1.535-1.631-1.571h-0.983v3.502h-1.043V29.436z M96.292,33.118h1.067
			c1.115,0,1.823-0.612,1.823-1.535c0-1.043-0.755-1.5-1.859-1.5c-0.504,0-0.852,0.036-1.031,0.084V33.118z"/>
		<path d="M107.905,37.052c-0.468,0.18-1.403,0.444-2.495,0.444c-1.223,0-2.231-0.312-3.022-1.067
			c-0.696-0.672-1.127-1.751-1.127-3.01c0-2.411,1.667-4.174,4.378-4.174c0.935,0,1.679,0.204,2.027,0.372l-0.264,0.852
			c-0.432-0.204-0.971-0.348-1.787-0.348c-1.967,0-3.25,1.223-3.25,3.25c0,2.051,1.223,3.262,3.118,3.262
			c0.684,0,1.151-0.096,1.392-0.216v-2.411h-1.631v-0.839h2.663V37.052z"/>
		<path d="M109.492,29.448c0.456-0.108,1.187-0.18,1.907-0.18c1.043,0,1.715,0.18,2.207,0.588c0.419,0.312,0.684,0.792,0.684,1.427
			c0,0.792-0.528,1.475-1.367,1.775v0.036c0.768,0.18,1.667,0.816,1.667,2.015c0,0.696-0.276,1.235-0.696,1.619
			c-0.552,0.516-1.463,0.755-2.782,0.755c-0.72,0-1.271-0.048-1.619-0.096V29.448z M110.536,32.758h0.947
			c1.091,0,1.739-0.588,1.739-1.367c0-0.936-0.708-1.319-1.763-1.319c-0.48,0-0.755,0.036-0.923,0.072V32.758z M110.536,36.62
			c0.216,0.036,0.503,0.048,0.875,0.048c1.079,0,2.075-0.396,2.075-1.571c0-1.091-0.947-1.559-2.087-1.559h-0.863V36.62z"/>
		<path d="M118.239,29.088c-0.875,1.187-1.499,2.734-1.499,4.917c0,2.135,0.66,3.658,1.499,4.857h-0.815
			c-0.756-0.996-1.571-2.531-1.571-4.869c0.012-2.351,0.815-3.898,1.571-4.905H118.239z"/>
		<path d="M119.032,37.412v-0.647l0.828-0.804c1.991-1.895,2.902-2.902,2.902-4.078c0-0.792-0.372-1.523-1.535-1.523
			c-0.708,0-1.295,0.36-1.655,0.66l-0.336-0.744c0.528-0.443,1.307-0.792,2.195-0.792c1.679,0,2.387,1.151,2.387,2.267
			c0,1.439-1.043,2.603-2.687,4.186l-0.612,0.576v0.024h3.49v0.875H119.032z"/>
		<path d="M129.841,30.503h-2.974l-0.3,2.003c0.18-0.024,0.348-0.036,0.636-0.036c0.611,0,1.199,0.12,1.679,0.42
			c0.611,0.336,1.115,1.02,1.115,1.991c0,1.523-1.211,2.663-2.902,2.663c-0.852,0-1.559-0.24-1.943-0.479l0.264-0.804
			c0.324,0.192,0.959,0.432,1.679,0.432c0.983,0,1.847-0.647,1.835-1.691c0-1.007-0.684-1.715-2.231-1.715
			c-0.456,0-0.804,0.036-1.091,0.072l0.504-3.742h3.729V30.503z"/>
		<path d="M135.997,30.503h-2.975l-0.299,2.003c0.18-0.024,0.348-0.036,0.635-0.036c0.611,0,1.199,0.12,1.68,0.42
			c0.611,0.336,1.115,1.02,1.115,1.991c0,1.523-1.211,2.663-2.902,2.663c-0.852,0-1.559-0.24-1.943-0.479l0.264-0.804
			c0.324,0.192,0.96,0.432,1.68,0.432c0.983,0,1.847-0.647,1.835-1.691c0-1.007-0.684-1.715-2.231-1.715
			c-0.455,0-0.803,0.036-1.091,0.072l0.504-3.742h3.729V30.503z"/>
		<path d="M137.151,38.899c0.264-0.72,0.588-2.003,0.72-2.878l1.175-0.12c-0.287,1.02-0.814,2.351-1.15,2.915L137.151,38.899z"/>
		<path d="M147.721,33.43c0,2.651-0.995,4.114-2.71,4.114c-1.523,0-2.567-1.427-2.592-4.006c0-2.626,1.141-4.054,2.723-4.054
			C146.772,29.484,147.721,30.947,147.721,33.43z M143.487,33.55c0,2.027,0.623,3.178,1.583,3.178c1.067,0,1.583-1.259,1.583-3.25
			c0-1.919-0.48-3.178-1.583-3.178C144.159,30.299,143.487,31.427,143.487,33.55z"/>
		<path d="M148.335,38.899c0.264-0.72,0.588-2.003,0.72-2.878l1.175-0.12c-0.287,1.02-0.814,2.351-1.15,2.915L148.335,38.899z"/>
		<path d="M158.904,33.43c0,2.651-0.995,4.114-2.71,4.114c-1.523,0-2.567-1.427-2.592-4.006c0-2.626,1.141-4.054,2.723-4.054
			C157.956,29.484,158.904,30.947,158.904,33.43z M154.671,33.55c0,2.027,0.623,3.178,1.583,3.178c1.067,0,1.583-1.259,1.583-3.25
			c0-1.919-0.48-3.178-1.583-3.178C155.343,30.299,154.671,31.427,154.671,33.55z"/>
		<path d="M159.566,38.863c0.84-1.188,1.499-2.734,1.499-4.893c0-2.159-0.647-3.682-1.499-4.881h0.815
			c0.756,0.983,1.571,2.53,1.571,4.881c-0.012,2.351-0.815,3.886-1.571,4.893H159.566z"/>
	</g>
</g>
</svg>
