<?xml version="1.0" encoding="utf-8"?>
<!-- Generator: Adobe Illustrator 15.1.0, SVG Export Plug-In . SVG Version: 6.00 Build 0)  -->
<!DOCTYPE svg PUBLIC "-//W3C//DTD SVG 1.1//EN" "http://www.w3.org/Graphics/SVG/1.1/DTD/svg11.dtd" [
	<!ENTITY ns_extend "http://ns.adobe.com/Extensibility/1.0/">
	<!ENTITY ns_ai "http://ns.adobe.com/AdobeIllustrator/10.0/">
	<!ENTITY ns_graphs "http://ns.adobe.com/Graphs/1.0/">
	<!ENTITY ns_vars "http://ns.adobe.com/Variables/1.0/">
	<!ENTITY ns_imrep "http://ns.adobe.com/ImageReplacement/1.0/">
	<!ENTITY ns_sfw "http://ns.adobe.com/SaveForWeb/1.0/">
	<!ENTITY ns_custom "http://ns.adobe.com/GenericCustomNamespace/1.0/">
	<!ENTITY ns_adobe_xpath "http://ns.adobe.com/XPath/1.0/">
]>
<svg version="1.1" xmlns:x="&ns_extend;" xmlns:i="&ns_ai;" xmlns:graph="&ns_graphs;"
	 xmlns="http://www.w3.org/2000/svg" xmlns:xlink="http://www.w3.org/1999/xlink" x="0px" y="0px" width="278.714px"
	 height="232.931px" viewBox="0 0 278.714 232.931" enable-background="new 0 0 278.714 232.931" xml:space="preserve">
<metadata>
	<sfw  xmlns="&ns_sfw;">
		<slices></slices>
		<sliceSourceBounds  height="233.007" width="278.714" x="23.976" y="-249.83" bottomLeftOrigin="true"></sliceSourceBounds>
	</sfw>
</metadata>
<pattern  x="-23.976" y="-16.899" width="18.474" height="18.175" patternUnits="userSpaceOnUse" id="New_Pattern_Swatch_3" viewBox="0 -18.175 18.474 18.175" overflow="visible">
	<g>
		<polygon fill="none" points="0,0 18.474,0 18.474,-18.175 0,-18.175 		"/>
		<polygon fill="#E0E0E0" points="9.438,-8.938 0,-8.938 0,-18.175 9.438,-18.175 		"/>
		<polygon fill="#E0E0E0" points="18.474,0 9.036,0 9.036,-9.237 18.474,-9.237 		"/>
	</g>
</pattern>
<g id="Layer_2">
	<rect y="-0.076" fill="url(#New_Pattern_Swatch_3)" width="278.714" height="233.007"/>
</g>
<g id="Layer_1">
	
		<rect x="56.626" y="16.488" opacity="0.45" fill="#FF0000" stroke="#000000" stroke-miterlimit="10" width="101.392" height="74.027"/>
	<rect x="102.824" y="42.059" fill="#0000FF" stroke="#000000" stroke-miterlimit="10" width="101.392" height="74.027"/>
	<g>
		<g>
			<line fill="none" stroke="#000000" stroke-miterlimit="10" x1="131.325" y1="122.512" x2="131.325" y2="132.943"/>
			<g>
				<path d="M131.325,138.978c-1.054-2.84-2.852-6.363-4.756-8.547l4.756,1.72l4.755-1.72
					C134.176,132.615,132.378,136.138,131.325,138.978z"/>
			</g>
		</g>
	</g>
	
		<rect x="56.625" y="156.905" opacity="0.21" fill="#FF0000" stroke="#000000" stroke-miterlimit="10" width="101.393" height="74.026"/>
	<g>
		<rect x="101.004" y="142.797" fill="none" width="60.643" height="12.45"/>
		<path d="M102.068,143.437c0.532-0.127,1.387-0.211,2.228-0.211c1.218,0,2.003,0.211,2.577,0.688
			c0.49,0.363,0.798,0.924,0.798,1.666c0,0.925-0.616,1.724-1.597,2.073v0.042c0.896,0.21,1.947,0.953,1.947,2.354
			c0,0.813-0.322,1.442-0.812,1.891c-0.645,0.603-1.709,0.883-3.25,0.883c-0.84,0-1.485-0.056-1.891-0.112V143.437z
			 M103.287,147.303h1.106c1.275,0,2.031-0.687,2.031-1.598c0-1.093-0.827-1.54-2.059-1.54c-0.561,0-0.882,0.041-1.079,0.084
			V147.303z M103.287,151.813c0.252,0.042,0.588,0.057,1.022,0.057c1.261,0,2.423-0.463,2.423-1.835
			c0-1.275-1.106-1.821-2.437-1.821h-1.009V151.813z"/>
		<path d="M114.377,151.113c0,0.589,0.028,1.163,0.098,1.625h-1.107l-0.098-0.854h-0.042c-0.378,0.532-1.107,1.009-2.073,1.009
			c-1.373,0-2.073-0.967-2.073-1.947c0-1.639,1.457-2.535,4.076-2.521v-0.14c0-0.547-0.154-1.569-1.541-1.555
			c-0.645,0-1.303,0.182-1.779,0.504l-0.28-0.826c0.561-0.351,1.387-0.589,2.241-0.589c2.073,0,2.578,1.415,2.578,2.76V151.113z
			 M113.186,149.278c-1.345-0.028-2.871,0.21-2.871,1.527c0,0.812,0.532,1.176,1.148,1.176c0.896,0,1.471-0.56,1.667-1.134
			c0.042-0.141,0.056-0.28,0.056-0.393V149.278z"/>
		<path d="M121.195,152.5c-0.322,0.154-1.036,0.393-1.947,0.393c-2.045,0-3.376-1.387-3.376-3.46c0-2.087,1.429-3.614,3.642-3.614
			c0.729,0,1.373,0.183,1.709,0.364l-0.28,0.938c-0.294-0.154-0.756-0.322-1.429-0.322c-1.555,0-2.396,1.163-2.396,2.563
			c0,1.569,1.009,2.535,2.354,2.535c0.7,0,1.163-0.168,1.513-0.322L121.195,152.5z"/>
		<path d="M123.853,149.068h0.028c0.168-0.238,0.393-0.532,0.588-0.771l2.003-2.339h1.471l-2.605,2.787l2.983,3.992h-1.513
			l-2.325-3.25l-0.63,0.7v2.55h-1.219v-9.945h1.219V149.068z"/>
		<path d="M135.042,142.792v8.194c0,0.603,0.028,1.289,0.056,1.751h-1.093l-0.056-1.177h-0.042
			c-0.364,0.757-1.177,1.331-2.283,1.331c-1.639,0-2.914-1.387-2.914-3.446c-0.014-2.255,1.401-3.628,3.04-3.628
			c1.051,0,1.737,0.49,2.045,1.022h0.028v-4.048H135.042z M133.823,148.717c0-0.153-0.014-0.364-0.056-0.518
			c-0.182-0.771-0.854-1.415-1.779-1.415c-1.275,0-2.031,1.12-2.031,2.605c0,1.373,0.687,2.507,2.003,2.507
			c0.826,0,1.583-0.56,1.807-1.471c0.042-0.168,0.056-0.336,0.056-0.532V148.717z"/>
		<path d="M137.096,148.074c0-0.799-0.014-1.485-0.056-2.115h1.079l0.056,1.345h0.042c0.308-0.911,1.064-1.485,1.891-1.485
			c0.126,0,0.224,0.015,0.336,0.028v1.162c-0.126-0.027-0.252-0.027-0.42-0.027c-0.869,0-1.485,0.645-1.653,1.568
			c-0.028,0.168-0.042,0.378-0.042,0.574v3.614h-1.233V148.074z"/>
		<path d="M147.669,149.292c0,2.508-1.751,3.601-3.375,3.601c-1.821,0-3.25-1.345-3.25-3.488c0-2.255,1.499-3.586,3.362-3.586
			C146.353,145.818,147.669,147.233,147.669,149.292z M142.305,149.362c0,1.485,0.84,2.605,2.045,2.605
			c1.177,0,2.059-1.106,2.059-2.634c0-1.148-0.574-2.591-2.031-2.591C142.935,146.743,142.305,148.087,142.305,149.362z"/>
		<path d="M149.22,148.171c0-0.868-0.028-1.569-0.056-2.213h1.093l0.07,1.162h0.028c0.49-0.826,1.303-1.303,2.409-1.303
			c1.653,0,2.886,1.387,2.886,3.432c0,2.438-1.499,3.643-3.096,3.643c-0.896,0-1.681-0.393-2.087-1.064h-0.028v3.684h-1.219V148.171
			z M150.439,149.978c0,0.183,0.014,0.351,0.056,0.505c0.224,0.854,0.966,1.442,1.849,1.442c1.302,0,2.059-1.064,2.059-2.619
			c0-1.345-0.714-2.508-2.017-2.508c-0.841,0-1.639,0.589-1.863,1.513c-0.042,0.154-0.084,0.337-0.084,0.49V149.978z"/>
	</g>
	<g opacity="0.5">
		<rect x="102.824" y="182.475" fill="#FF0000" width="55.195" height="48.456"/>
		<g>
			<polyline fill="none" stroke="#000000" stroke-miterlimit="10" points="158.019,229.431 158.019,230.931 156.519,230.931 			"/>
			
				<line fill="none" stroke="#000000" stroke-miterlimit="10" stroke-dasharray="3.0703,3.0703" x1="153.448" y1="230.931" x2="105.859" y2="230.931"/>
			<polyline fill="none" stroke="#000000" stroke-miterlimit="10" points="104.324,230.931 102.824,230.931 102.824,229.431 			"/>
			
				<line fill="none" stroke="#000000" stroke-miterlimit="10" stroke-dasharray="3.0304,3.0304" x1="102.824" y1="226.401" x2="102.824" y2="185.491"/>
			<polyline fill="none" stroke="#000000" stroke-miterlimit="10" points="102.824,183.975 102.824,182.475 104.324,182.475 			"/>
			
				<line fill="none" stroke="#000000" stroke-miterlimit="10" stroke-dasharray="3.0703,3.0703" x1="107.394" y1="182.475" x2="154.983" y2="182.475"/>
			<polyline fill="none" stroke="#000000" stroke-miterlimit="10" points="156.519,182.475 158.019,182.475 158.019,183.975 			"/>
			
				<line fill="none" stroke="#000000" stroke-miterlimit="10" stroke-dasharray="3.0304,3.0304" x1="158.019" y1="187.005" x2="158.019" y2="227.916"/>
		</g>
	</g>
	<g>
		<rect x="61.959" y="2" fill="none" width="96.059" height="10.046"/>
		<path d="M63.024,2.625c0.617-0.112,1.513-0.196,2.339-0.196c1.303,0,2.157,0.252,2.731,0.771c0.462,0.42,0.743,1.064,0.743,1.807
			c0,1.232-0.785,2.059-1.765,2.395v0.042c0.714,0.252,1.148,0.925,1.373,1.905c0.308,1.316,0.532,2.227,0.729,2.591h-1.261
			c-0.154-0.28-0.364-1.079-0.616-2.255c-0.28-1.303-0.798-1.793-1.905-1.835h-1.148v4.09h-1.219V2.625z M64.243,6.925h1.247
			c1.303,0,2.129-0.714,2.129-1.793c0-1.219-0.883-1.751-2.171-1.751c-0.588,0-0.995,0.042-1.205,0.098V6.925z"/>
		<path d="M77.798,11.52c-0.546,0.21-1.639,0.519-2.914,0.519c-1.429,0-2.605-0.364-3.53-1.247
			c-0.812-0.785-1.316-2.045-1.316-3.516c0-2.815,1.947-4.875,5.113-4.875c1.092,0,1.961,0.238,2.367,0.434L77.21,3.83
			c-0.504-0.238-1.135-0.406-2.087-0.406c-2.297,0-3.796,1.429-3.796,3.796c0,2.396,1.429,3.81,3.642,3.81
			c0.798,0,1.345-0.112,1.625-0.252V7.962h-1.905v-0.98h3.11V11.52z"/>
		<path d="M79.642,2.639c0.532-0.126,1.387-0.21,2.228-0.21c1.218,0,2.003,0.21,2.577,0.687c0.49,0.364,0.798,0.924,0.798,1.667
			c0,0.924-0.616,1.723-1.597,2.073v0.042c0.896,0.21,1.947,0.953,1.947,2.354c0,0.813-0.322,1.443-0.812,1.891
			c-0.645,0.602-1.709,0.882-3.25,0.882c-0.84,0-1.485-0.056-1.891-0.112V2.639z M80.861,6.505h1.106
			c1.275,0,2.031-0.686,2.031-1.597c0-1.093-0.826-1.541-2.059-1.541c-0.56,0-0.882,0.042-1.079,0.084V6.505z M80.861,11.016
			c0.252,0.042,0.588,0.056,1.022,0.056c1.261,0,2.423-0.462,2.423-1.835c0-1.274-1.106-1.821-2.437-1.821h-1.009V11.016z"/>
		<path d="M89.85,2.219c-1.022,1.387-1.751,3.194-1.751,5.743c0,2.493,0.771,4.272,1.751,5.673h-0.953
			c-0.882-1.163-1.835-2.956-1.835-5.687c0.014-2.746,0.953-4.552,1.835-5.729H89.85z"/>
		<path d="M90.772,11.94v-0.756l0.966-0.938c2.326-2.213,3.39-3.39,3.39-4.763c0-0.924-0.435-1.779-1.793-1.779
			c-0.827,0-1.513,0.42-1.933,0.771L91.01,3.605c0.616-0.518,1.527-0.924,2.563-0.924c1.961,0,2.788,1.345,2.788,2.647
			c0,1.681-1.219,3.04-3.138,4.888l-0.714,0.672v0.028h4.076v1.022H90.772z"/>
		<path d="M103.389,3.872h-3.474l-0.35,2.339c0.21-0.028,0.406-0.042,0.742-0.042c0.714,0,1.401,0.14,1.961,0.49
			c0.714,0.392,1.303,1.19,1.303,2.325c0,1.779-1.415,3.11-3.39,3.11c-0.995,0-1.821-0.28-2.269-0.561l0.308-0.938
			c0.378,0.224,1.121,0.504,1.961,0.504c1.149,0,2.157-0.756,2.143-1.975c0-1.177-0.798-2.003-2.605-2.003
			c-0.533,0-0.939,0.042-1.275,0.084l0.588-4.371h4.356V3.872z"/>
		<path d="M110.57,3.872h-3.474l-0.35,2.339c0.21-0.028,0.406-0.042,0.742-0.042c0.714,0,1.401,0.14,1.961,0.49
			c0.714,0.392,1.303,1.19,1.303,2.325c0,1.779-1.415,3.11-3.39,3.11c-0.995,0-1.821-0.28-2.269-0.561l0.308-0.938
			c0.378,0.224,1.121,0.504,1.961,0.504c1.149,0,2.157-0.756,2.143-1.975c0-1.177-0.798-2.003-2.605-2.003
			c-0.533,0-0.939,0.042-1.275,0.084l0.588-4.371h4.356V3.872z"/>
		<path d="M111.911,13.677c0.308-0.84,0.687-2.339,0.84-3.362l1.373-0.14c-0.336,1.191-0.953,2.746-1.345,3.404L111.911,13.677z"/>
		<path d="M124.248,7.29c0,3.096-1.163,4.805-3.166,4.805c-1.779,0-2.998-1.667-3.025-4.679c0-3.068,1.331-4.734,3.18-4.734
			C123.141,2.681,124.248,4.39,124.248,7.29z M119.303,7.43c0,2.367,0.729,3.712,1.849,3.712c1.247,0,1.849-1.471,1.849-3.796
			c0-2.241-0.56-3.712-1.849-3.712C120.087,3.633,119.303,4.95,119.303,7.43z"/>
		<path d="M124.958,13.677c0.308-0.84,0.687-2.339,0.84-3.362l1.373-0.14c-0.336,1.191-0.953,2.746-1.345,3.404L124.958,13.677z"/>
		<path d="M137.295,7.29c0,3.096-1.163,4.805-3.166,4.805c-1.779,0-2.998-1.667-3.025-4.679c0-3.068,1.331-4.734,3.18-4.734
			C136.188,2.681,137.295,4.39,137.295,7.29z M132.351,7.43c0,2.367,0.729,3.712,1.849,3.712c1.247,0,1.849-1.471,1.849-3.796
			c0-2.241-0.56-3.712-1.849-3.712C133.135,3.633,132.351,4.95,132.351,7.43z"/>
		<path d="M138.005,13.677c0.308-0.84,0.687-2.339,0.84-3.362l1.373-0.14c-0.336,1.191-0.953,2.746-1.345,3.404L138.005,13.677z"/>
		<path d="M144.375,11.211c0-0.504,0.35-0.882,0.84-0.882s0.827,0.364,0.827,0.882c0,0.504-0.336,0.883-0.854,0.883
			C144.711,12.094,144.375,11.716,144.375,11.211z"/>
		<path d="M152.61,3.872h-3.474l-0.35,2.339c0.21-0.028,0.406-0.042,0.742-0.042c0.714,0,1.401,0.14,1.961,0.49
			c0.714,0.392,1.303,1.19,1.303,2.325c0,1.779-1.415,3.11-3.39,3.11c-0.995,0-1.821-0.28-2.269-0.561l0.308-0.938
			c0.378,0.224,1.121,0.504,1.961,0.504c1.149,0,2.157-0.756,2.143-1.975c0-1.177-0.798-2.003-2.605-2.003
			c-0.533,0-0.939,0.042-1.275,0.084l0.588-4.371h4.356V3.872z"/>
		<path d="M154.007,13.635c0.98-1.387,1.751-3.194,1.751-5.715c0-2.521-0.756-4.3-1.751-5.701h0.953
			c0.882,1.148,1.835,2.956,1.835,5.701c-0.014,2.745-0.953,4.538-1.835,5.715H154.007z"/>
	</g>
	<g>
		<g>
			<path fill="none" stroke="#000000" stroke-miterlimit="10" d="M201.757,187.91c0,12.35-15.264,22.555-35.177,24.291"/>
			<g>
				<path d="M160.548,212.46c2.781-1.199,6.207-3.176,8.29-5.191l-1.472,4.838l1.964,4.66
					C167.05,214.978,163.439,213.365,160.548,212.46z"/>
			</g>
		</g>
	</g>
	<g>
		<rect x="172.931" y="170.365" fill="none" width="96.059" height="10.047"/>
		<path d="M173.996,170.99c0.617-0.111,1.513-0.195,2.339-0.195c1.303,0,2.157,0.252,2.731,0.77
			c0.463,0.421,0.742,1.064,0.742,1.808c0,1.232-0.784,2.06-1.765,2.396v0.041c0.714,0.253,1.148,0.926,1.372,1.906
			c0.309,1.316,0.533,2.227,0.729,2.591h-1.26c-0.154-0.28-0.365-1.079-0.617-2.255c-0.279-1.303-0.798-1.793-1.905-1.836h-1.148
			v4.091h-1.219V170.99z M175.215,175.291h1.247c1.303,0,2.129-0.715,2.129-1.793c0-1.219-0.883-1.751-2.171-1.751
			c-0.588,0-0.995,0.042-1.205,0.099V175.291z"/>
		<path d="M188.77,179.884c-0.547,0.211-1.639,0.52-2.914,0.52c-1.429,0-2.605-0.365-3.529-1.247
			c-0.813-0.784-1.316-2.046-1.316-3.517c0-2.814,1.946-4.874,5.112-4.874c1.093,0,1.961,0.238,2.367,0.435l-0.308,0.994
			c-0.505-0.238-1.135-0.406-2.088-0.406c-2.297,0-3.796,1.429-3.796,3.796c0,2.396,1.429,3.81,3.642,3.81
			c0.799,0,1.346-0.111,1.625-0.252v-2.814h-1.904v-0.98h3.109V179.884z"/>
		<path d="M190.614,171.004c0.532-0.126,1.387-0.21,2.228-0.21c1.218,0,2.003,0.21,2.577,0.686c0.49,0.365,0.799,0.925,0.799,1.668
			c0,0.924-0.617,1.723-1.598,2.072v0.042c0.896,0.21,1.947,0.952,1.947,2.354c0,0.813-0.322,1.442-0.813,1.892
			c-0.645,0.602-1.709,0.882-3.25,0.882c-0.84,0-1.484-0.056-1.891-0.112V171.004z M191.833,174.871h1.106
			c1.274,0,2.031-0.687,2.031-1.598c0-1.092-0.826-1.541-2.06-1.541c-0.56,0-0.882,0.043-1.078,0.084V174.871z M191.833,179.38
			c0.252,0.043,0.588,0.057,1.022,0.057c1.261,0,2.423-0.463,2.423-1.836c0-1.273-1.105-1.82-2.437-1.82h-1.009V179.38z"/>
		<path d="M200.821,170.583c-1.021,1.387-1.75,3.194-1.75,5.744c0,2.492,0.77,4.271,1.75,5.672h-0.952
			c-0.882-1.162-1.835-2.955-1.835-5.687c0.014-2.745,0.953-4.552,1.835-5.729H200.821z"/>
		<path d="M201.744,180.305v-0.757l0.966-0.938c2.326-2.214,3.391-3.391,3.391-4.764c0-0.924-0.435-1.778-1.793-1.778
			c-0.826,0-1.513,0.42-1.934,0.771l-0.392-0.869c0.616-0.518,1.526-0.924,2.563-0.924c1.961,0,2.787,1.345,2.787,2.647
			c0,1.681-1.219,3.04-3.138,4.888l-0.714,0.673v0.028h4.076v1.022H201.744z"/>
		<path d="M214.36,172.237h-3.474l-0.351,2.339c0.211-0.027,0.406-0.041,0.742-0.041c0.715,0,1.401,0.14,1.962,0.49
			c0.714,0.392,1.303,1.189,1.303,2.324c0,1.779-1.415,3.11-3.39,3.11c-0.995,0-1.821-0.28-2.27-0.561l0.309-0.938
			c0.378,0.225,1.12,0.504,1.961,0.504c1.148,0,2.156-0.756,2.143-1.975c0-1.177-0.799-2.003-2.605-2.003
			c-0.532,0-0.938,0.042-1.274,0.084l0.589-4.37h4.355V172.237z"/>
		<path d="M221.542,172.237h-3.474l-0.351,2.339c0.211-0.027,0.406-0.041,0.742-0.041c0.715,0,1.401,0.14,1.962,0.49
			c0.714,0.392,1.303,1.189,1.303,2.324c0,1.779-1.415,3.11-3.39,3.11c-0.995,0-1.821-0.28-2.27-0.561l0.309-0.938
			c0.378,0.225,1.12,0.504,1.961,0.504c1.148,0,2.156-0.756,2.143-1.975c0-1.177-0.799-2.003-2.605-2.003
			c-0.532,0-0.938,0.042-1.274,0.084l0.589-4.37h4.355V172.237z"/>
		<path d="M222.882,182.042c0.308-0.841,0.687-2.34,0.841-3.362l1.373-0.14c-0.337,1.19-0.953,2.745-1.346,3.403L222.882,182.042z"
			/>
		<path d="M235.219,175.655c0,3.096-1.162,4.805-3.166,4.805c-1.778,0-2.997-1.667-3.025-4.679c0-3.068,1.331-4.734,3.18-4.734
			C234.113,171.046,235.219,172.755,235.219,175.655z M230.275,175.794c0,2.367,0.729,3.713,1.849,3.713
			c1.247,0,1.85-1.471,1.85-3.797c0-2.241-0.561-3.712-1.85-3.712C231.059,171.999,230.275,173.316,230.275,175.794z"/>
		<path d="M235.93,182.042c0.308-0.841,0.686-2.34,0.84-3.362l1.373-0.14c-0.336,1.19-0.953,2.745-1.345,3.403L235.93,182.042z"/>
		<path d="M248.267,175.655c0,3.096-1.163,4.805-3.166,4.805c-1.778,0-2.997-1.667-3.025-4.679c0-3.068,1.331-4.734,3.18-4.734
			C247.161,171.046,248.267,172.755,248.267,175.655z M243.323,175.794c0,2.367,0.729,3.713,1.849,3.713
			c1.247,0,1.849-1.471,1.849-3.797c0-2.241-0.561-3.712-1.849-3.712C244.106,171.999,243.323,173.316,243.323,175.794z"/>
		<path d="M248.977,182.042c0.309-0.841,0.687-2.34,0.84-3.362l1.373-0.14c-0.336,1.19-0.952,2.745-1.344,3.403L248.977,182.042z"/>
		<path d="M255.347,179.577c0-0.504,0.351-0.882,0.841-0.882s0.826,0.363,0.826,0.882c0,0.505-0.336,0.883-0.854,0.883
			C255.683,180.459,255.347,180.082,255.347,179.577z"/>
		<path d="M263.583,172.237h-3.475l-0.35,2.339c0.209-0.027,0.406-0.041,0.742-0.041c0.714,0,1.4,0.14,1.961,0.49
			c0.715,0.392,1.303,1.189,1.303,2.324c0,1.779-1.415,3.11-3.391,3.11c-0.994,0-1.82-0.28-2.269-0.561l0.308-0.938
			c0.379,0.225,1.121,0.504,1.961,0.504c1.149,0,2.158-0.756,2.144-1.975c0-1.177-0.798-2.003-2.604-2.003
			c-0.533,0-0.939,0.042-1.275,0.084l0.588-4.37h4.357V172.237z"/>
		<path d="M264.979,182c0.98-1.387,1.75-3.193,1.75-5.715s-0.756-4.3-1.75-5.701h0.952c0.882,1.148,1.835,2.956,1.835,5.701
			c-0.014,2.746-0.953,4.539-1.835,5.715H264.979z"/>
	</g>
</g>
</svg>
