<?xml version="1.0" encoding="utf-8"?>
<!-- Generator: Adobe Illustrator 16.0.0, SVG Export Plug-In . SVG Version: 6.00 Build 0)  -->
<!DOCTYPE svg PUBLIC "-//W3C//DTD SVG 1.1//EN" "http://www.w3.org/Graphics/SVG/1.1/DTD/svg11.dtd">
<svg version="1.1" xmlns="http://www.w3.org/2000/svg" xmlns:xlink="http://www.w3.org/1999/xlink" x="0px" y="0px"
	 width="278.714px" height="232.931px" viewBox="0 0 278.714 232.931" enable-background="new 0 0 278.714 232.931"
	 xml:space="preserve">
<pattern  x="-23.976" y="-16.899" width="18.474" height="18.175" patternUnits="userSpaceOnUse" id="New_Pattern_Swatch_3" viewBox="0 -18.175 18.474 18.175" overflow="visible">
	<g>
		<polygon fill="none" points="0,0 18.474,0 18.474,-18.175 0,-18.175 		"/>
		<polygon fill="#E0E0E0" points="9.438,-8.938 0,-8.938 0,-18.175 9.438,-18.175 		"/>
		<polygon fill="#E0E0E0" points="18.474,0 9.036,0 9.036,-9.237 18.474,-9.237 		"/>
	</g>
</pattern>
<g id="Layer_2">
	<rect y="1" fill="url(#New_Pattern_Swatch_3)" width="278.714" height="231.931"/>
</g>
<g id="Layer_1">
	<rect x="3.979" y="14.473" opacity="0.5" fill="#FF0000" width="107.456" height="67.382"/>
	<g>
		<rect x="9.677" y="1" fill="none" width="96.058" height="10.047"/>
		<path d="M10.742,1.625c0.617-0.126,1.499-0.196,2.339-0.196c1.303,0,2.143,0.238,2.731,0.771c0.477,0.42,0.743,1.064,0.743,1.793
			c0,1.247-0.785,2.073-1.779,2.409v0.042c0.729,0.252,1.163,0.925,1.387,1.905c0.308,1.316,0.532,2.227,0.729,2.591H15.63
			c-0.154-0.266-0.364-1.079-0.63-2.255c-0.28-1.303-0.784-1.793-1.891-1.835H11.96v4.09h-1.219V1.625z M11.96,5.925h1.247
			c1.303,0,2.129-0.714,2.129-1.793c0-1.219-0.883-1.751-2.171-1.765c-0.588,0-1.008,0.056-1.205,0.112V5.925z"/>
		<path d="M25.501,10.52c-0.546,0.196-1.625,0.519-2.899,0.519c-1.429,0-2.605-0.364-3.53-1.247
			c-0.812-0.785-1.316-2.045-1.316-3.516c0.014-2.815,1.947-4.875,5.113-4.875c1.092,0,1.947,0.238,2.353,0.434L24.927,2.83
			c-0.504-0.224-1.135-0.406-2.087-0.406c-2.297,0-3.796,1.429-3.796,3.796c0,2.396,1.443,3.81,3.642,3.81
			c0.798,0,1.345-0.112,1.625-0.252V6.962h-1.919v-0.98h3.11V10.52z"/>
		<path d="M27.359,1.625c0.532-0.112,1.373-0.196,2.228-0.196c1.218,0,2.003,0.21,2.591,0.687c0.49,0.364,0.784,0.924,0.784,1.667
			c0,0.91-0.602,1.709-1.597,2.073v0.028c0.896,0.224,1.947,0.966,1.947,2.367c0,0.813-0.322,1.429-0.798,1.891
			c-0.658,0.602-1.723,0.882-3.264,0.882c-0.84,0-1.485-0.056-1.891-0.112V1.625z M28.578,5.491h1.106
			c1.289,0,2.045-0.672,2.045-1.583c0-1.106-0.84-1.541-2.073-1.541c-0.56,0-0.882,0.042-1.079,0.084V5.491z M28.578,10.016
			c0.238,0.042,0.588,0.056,1.022,0.056c1.261,0,2.423-0.462,2.423-1.835c0-1.289-1.106-1.821-2.437-1.821h-1.009V10.016z"/>
		<path d="M37.581,1.219c-1.023,1.373-1.765,3.194-1.765,5.729c0,2.493,0.771,4.286,1.765,5.687h-0.967
			c-0.882-1.163-1.835-2.956-1.835-5.687c0.014-2.759,0.953-4.552,1.835-5.729H37.581z"/>
		<path d="M41.165,2.984h-0.028l-1.583,0.854l-0.238-0.938l1.989-1.064h1.051v9.105h-1.191V2.984z"/>
		<path d="M45.265,12.663c0.308-0.827,0.687-2.326,0.84-3.348l1.373-0.14c-0.322,1.191-0.938,2.746-1.331,3.404L45.265,12.663z"/>
		<path d="M57.588,6.29c0,3.096-1.148,4.805-3.166,4.805c-1.779,0-2.984-1.667-3.012-4.679c0-3.054,1.316-4.734,3.166-4.734
			C56.495,1.681,57.588,3.39,57.588,6.29z M52.643,6.43c0,2.367,0.729,3.712,1.849,3.712c1.261,0,1.863-1.471,1.863-3.796
			c0-2.241-0.574-3.712-1.849-3.712C53.428,2.633,52.643,3.95,52.643,6.43z"/>
		<path d="M58.312,12.663c0.308-0.827,0.687-2.326,0.84-3.348l1.373-0.14c-0.322,1.191-0.938,2.746-1.331,3.404L58.312,12.663z"/>
		<path d="M70.635,6.29c0,3.096-1.148,4.805-3.166,4.805c-1.779,0-2.984-1.667-3.012-4.679c0-3.054,1.316-4.734,3.166-4.734
			C69.542,1.681,70.635,3.39,70.635,6.29z M65.69,6.43c0,2.367,0.729,3.712,1.849,3.712c1.261,0,1.863-1.471,1.863-3.796
			c0-2.241-0.574-3.712-1.849-3.712C66.475,2.633,65.69,3.95,65.69,6.43z"/>
		<path d="M71.359,12.663c0.308-0.827,0.687-2.326,0.84-3.348l1.373-0.14c-0.322,1.191-0.938,2.746-1.331,3.404L71.359,12.663z"/>
		<path d="M77.729,10.211c0-0.518,0.35-0.882,0.84-0.882s0.827,0.364,0.827,0.882c0,0.504-0.322,0.883-0.841,0.883
			C78.065,11.094,77.729,10.716,77.729,10.211z"/>
		<path d="M85.964,2.872H82.49l-0.35,2.339c0.21-0.028,0.406-0.056,0.742-0.056c0.701,0,1.401,0.154,1.961,0.49
			c0.714,0.406,1.303,1.191,1.303,2.339c0,1.779-1.415,3.11-3.39,3.11c-0.995,0-1.835-0.28-2.269-0.561l0.308-0.938
			c0.378,0.224,1.121,0.504,1.947,0.504c1.163,0,2.157-0.756,2.157-1.975c-0.014-1.177-0.798-2.017-2.619-2.017
			c-0.519,0-0.925,0.056-1.261,0.098l0.588-4.371h4.356V2.872z"/>
		<path d="M87.361,12.635c0.995-1.387,1.765-3.208,1.765-5.729c0-2.507-0.756-4.3-1.765-5.687h0.953
			c0.896,1.148,1.835,2.941,1.835,5.701c0,2.745-0.938,4.524-1.835,5.715H87.361z"/>
	</g>
	<rect x="156.566" y="22.393" fill="#0000FF" fill-opacity="0.5" width="78.53" height="41.446"/>
	<g>
		<rect x="145.447" y="6.715" fill="none" width="100.768" height="10.046"/>
		<path d="M146.511,7.34c0.616-0.126,1.499-0.196,2.34-0.196c1.303,0,2.143,0.238,2.731,0.771c0.476,0.42,0.742,1.064,0.742,1.793
			c0,1.247-0.784,2.073-1.779,2.409v0.042c0.729,0.252,1.163,0.925,1.387,1.905c0.309,1.316,0.532,2.227,0.729,2.591H151.4
			c-0.154-0.266-0.364-1.079-0.63-2.255c-0.28-1.303-0.785-1.793-1.892-1.835h-1.148v4.09h-1.219V7.34z M147.73,11.641h1.247
			c1.303,0,2.129-0.714,2.129-1.793c0-1.219-0.883-1.751-2.171-1.765c-0.589,0-1.009,0.056-1.205,0.112V11.641z"/>
		<path d="M161.271,16.235c-0.546,0.196-1.624,0.519-2.899,0.519c-1.429,0-2.605-0.364-3.529-1.247
			c-0.813-0.785-1.317-2.045-1.317-3.516c0.015-2.815,1.947-4.875,5.113-4.875c1.093,0,1.947,0.238,2.354,0.434l-0.295,0.995
			c-0.504-0.224-1.134-0.406-2.087-0.406c-2.297,0-3.796,1.429-3.796,3.796c0,2.396,1.442,3.81,3.642,3.81
			c0.799,0,1.345-0.112,1.625-0.252v-2.815h-1.919v-0.98h3.109V16.235z"/>
		<path d="M163.129,7.34c0.532-0.112,1.373-0.196,2.228-0.196c1.219,0,2.003,0.21,2.591,0.687c0.49,0.364,0.785,0.924,0.785,1.667
			c0,0.91-0.603,1.709-1.598,2.073v0.028c0.896,0.224,1.947,0.966,1.947,2.367c0,0.813-0.322,1.429-0.798,1.891
			c-0.659,0.602-1.724,0.882-3.264,0.882c-0.841,0-1.485-0.056-1.892-0.112V7.34z M164.348,11.207h1.106
			c1.289,0,2.045-0.672,2.045-1.583c0-1.106-0.84-1.541-2.072-1.541c-0.561,0-0.883,0.042-1.079,0.084V11.207z M164.348,15.731
			c0.238,0.042,0.588,0.056,1.022,0.056c1.261,0,2.424-0.462,2.424-1.835c0-1.289-1.107-1.821-2.438-1.821h-1.009V15.731z"/>
		<path d="M173.351,6.934c-1.022,1.373-1.766,3.194-1.766,5.729c0,2.493,0.771,4.286,1.766,5.687h-0.967
			c-0.883-1.163-1.835-2.956-1.835-5.687c0.014-2.759,0.952-4.552,1.835-5.729H173.351z"/>
		<path d="M180.31,12.005c0,3.096-1.148,4.805-3.166,4.805c-1.778,0-2.983-1.667-3.012-4.679c0-3.054,1.317-4.734,3.166-4.734
			C179.217,7.396,180.31,9.105,180.31,12.005z M175.366,12.145c0,2.367,0.728,3.712,1.849,3.712c1.261,0,1.863-1.471,1.863-3.796
			c0-2.241-0.574-3.712-1.85-3.712C176.15,8.349,175.366,9.666,175.366,12.145z"/>
		<path d="M181.035,18.378c0.308-0.827,0.686-2.326,0.84-3.348l1.373-0.14c-0.322,1.191-0.938,2.746-1.331,3.404L181.035,18.378z"/>
		<path d="M193.357,12.005c0,3.096-1.148,4.805-3.166,4.805c-1.778,0-2.983-1.667-3.012-4.679c0-3.054,1.317-4.734,3.166-4.734
			C192.264,7.396,193.357,9.105,193.357,12.005z M188.413,12.145c0,2.367,0.728,3.712,1.849,3.712c1.261,0,1.863-1.471,1.863-3.796
			c0-2.241-0.574-3.712-1.85-3.712C189.197,8.349,188.413,9.666,188.413,12.145z"/>
		<path d="M194.082,18.378c0.308-0.827,0.686-2.326,0.84-3.348l1.373-0.14c-0.322,1.191-0.938,2.746-1.331,3.404L194.082,18.378z"/>
		<path d="M203.028,8.699H203l-1.582,0.854l-0.238-0.938l1.989-1.064h1.05v9.105h-1.19V8.699z"/>
		<path d="M207.128,18.378c0.308-0.827,0.686-2.326,0.84-3.348l1.373-0.14c-0.322,1.191-0.938,2.746-1.331,3.404L207.128,18.378z"/>
		<path d="M213.498,15.927c0-0.518,0.35-0.882,0.84-0.882c0.491,0,0.827,0.364,0.827,0.882c0,0.504-0.322,0.883-0.841,0.883
			C213.833,16.81,213.498,16.431,213.498,15.927z"/>
		<path d="M221.732,8.587h-3.474l-0.351,2.339c0.21-0.028,0.406-0.056,0.742-0.056c0.7,0,1.401,0.154,1.961,0.49
			c0.715,0.406,1.303,1.191,1.303,2.339c0,1.779-1.414,3.11-3.39,3.11c-0.994,0-1.835-0.28-2.27-0.561l0.309-0.938
			c0.378,0.224,1.12,0.504,1.947,0.504c1.162,0,2.157-0.756,2.157-1.975c-0.015-1.177-0.799-2.017-2.62-2.017
			c-0.518,0-0.924,0.056-1.261,0.098l0.589-4.371h4.356V8.587z"/>
		<path d="M223.128,18.35c0.994-1.387,1.765-3.208,1.765-5.729c0-2.507-0.756-4.3-1.765-5.687h0.952
			c0.896,1.148,1.835,2.941,1.835,5.701c0,2.745-0.938,4.524-1.835,5.715H223.128z"/>
	</g>
	<g>
		<path d="M131.017,40.861v3.063h2.945v0.782h-2.945v3.088h-0.834v-3.088h-2.945v-0.782h2.945v-3.063H131.017z"/>
	</g>
	<g>
		<g>
			<line fill="none" stroke="#000000" stroke-miterlimit="10" x1="130.431" y1="82.615" x2="130.431" y2="135.042"/>
			<g>
				<path d="M130.431,141.077c-1.054-2.84-2.852-6.363-4.756-8.548l4.756,1.721l4.755-1.721
					C133.282,134.713,131.484,138.237,130.431,141.077z"/>
			</g>
		</g>
	</g>
	<rect x="55.372" y="156.544" opacity="0.5" fill="#FF0000" width="107.457" height="67.383"/>
	<rect x="69.835" y="169.512" opacity="0.5" fill="#0000FF" width="78.529" height="41.446"/>
	<g>
		<g>
			<path fill="none" stroke="#000000" stroke-miterlimit="10" d="M190.231,169.512c0,12.35-15.264,22.554-35.177,24.29"/>
			<g>
				<path d="M149.022,194.063c2.781-1.199,6.207-3.177,8.29-5.191l-1.472,4.838l1.964,4.66
					C155.524,196.581,151.913,194.967,149.022,194.063z"/>
			</g>
		</g>
	</g>
	<g>
		<rect x="163.964" y="156.976" fill="none" width="113.215" height="10.047"/>
		<path d="M165.029,157.6c0.616-0.126,1.499-0.195,2.34-0.195c1.302,0,2.143,0.237,2.731,0.771c0.476,0.42,0.742,1.064,0.742,1.793
			c0,1.246-0.784,2.072-1.779,2.409v0.042c0.729,0.252,1.163,0.924,1.387,1.904c0.309,1.317,0.532,2.228,0.729,2.592h-1.261
			c-0.154-0.267-0.364-1.078-0.63-2.255c-0.28-1.303-0.785-1.793-1.892-1.835h-1.148v4.09h-1.219V157.6z M166.248,161.901h1.247
			c1.303,0,2.129-0.715,2.129-1.793c0-1.219-0.883-1.751-2.171-1.765c-0.589,0-1.009,0.056-1.205,0.111V161.901z"/>
		<path d="M179.789,166.496c-0.546,0.195-1.624,0.518-2.899,0.518c-1.429,0-2.605-0.364-3.529-1.246
			c-0.813-0.784-1.317-2.045-1.317-3.516c0.015-2.816,1.947-4.875,5.113-4.875c1.093,0,1.947,0.238,2.354,0.435l-0.295,0.994
			c-0.504-0.225-1.134-0.406-2.087-0.406c-2.297,0-3.796,1.429-3.796,3.796c0,2.396,1.442,3.811,3.642,3.811
			c0.799,0,1.345-0.112,1.625-0.253v-2.815h-1.919v-0.98h3.109V166.496z"/>
		<path d="M181.647,157.6c0.532-0.111,1.373-0.195,2.228-0.195c1.219,0,2.003,0.21,2.591,0.686c0.49,0.364,0.785,0.925,0.785,1.667
			c0,0.911-0.603,1.709-1.598,2.073v0.028c0.896,0.224,1.947,0.967,1.947,2.367c0,0.813-0.322,1.429-0.798,1.891
			c-0.659,0.603-1.724,0.883-3.264,0.883c-0.841,0-1.485-0.056-1.892-0.112V157.6z M182.866,161.466h1.106
			c1.289,0,2.045-0.672,2.045-1.583c0-1.106-0.84-1.54-2.073-1.54c-0.56,0-0.882,0.042-1.078,0.084V161.466z M182.866,165.991
			c0.238,0.042,0.588,0.057,1.022,0.057c1.261,0,2.424-0.463,2.424-1.835c0-1.289-1.107-1.821-2.438-1.821h-1.009V165.991z"/>
		<path d="M191.869,157.194c-1.022,1.373-1.766,3.194-1.766,5.729c0,2.493,0.771,4.286,1.766,5.688h-0.967
			c-0.883-1.163-1.835-2.956-1.835-5.688c0.014-2.76,0.952-4.553,1.835-5.729H191.869z"/>
		<path d="M192.875,166.187c0-0.519,0.35-0.883,0.841-0.883c0.49,0,0.826,0.364,0.826,0.883c0,0.504-0.322,0.883-0.841,0.883
			C193.21,167.07,192.875,166.691,192.875,166.187z"/>
		<path d="M195.968,165.5c0.35,0.225,1.162,0.574,2.017,0.574c1.583,0,2.073-1.008,2.06-1.765c-0.015-1.274-1.163-1.821-2.354-1.821
			h-0.687v-0.924h0.687c0.896,0,2.031-0.463,2.031-1.541c0-0.729-0.463-1.373-1.597-1.373c-0.729,0-1.429,0.322-1.821,0.603
			l-0.322-0.896c0.477-0.351,1.4-0.7,2.381-0.7c1.793,0,2.605,1.064,2.605,2.171c0,0.938-0.56,1.737-1.681,2.144v0.027
			c1.121,0.225,2.031,1.064,2.031,2.34c0,1.456-1.135,2.731-3.319,2.731c-1.023,0-1.92-0.322-2.368-0.616L195.968,165.5z"/>
		<path d="M203.15,165.5c0.35,0.225,1.162,0.574,2.017,0.574c1.583,0,2.073-1.008,2.06-1.765c-0.015-1.274-1.163-1.821-2.354-1.821
			h-0.687v-0.924h0.687c0.896,0,2.031-0.463,2.031-1.541c0-0.729-0.463-1.373-1.597-1.373c-0.729,0-1.429,0.322-1.821,0.603
			l-0.322-0.896c0.477-0.351,1.4-0.7,2.381-0.7c1.793,0,2.605,1.064,2.605,2.171c0,0.938-0.56,1.737-1.681,2.144v0.027
			c1.121,0.225,2.031,1.064,2.031,2.34c0,1.456-1.135,2.731-3.319,2.731c-1.023,0-1.92-0.322-2.368-0.616L203.15,165.5z"/>
		<path d="M209.631,168.638c0.308-0.826,0.686-2.325,0.84-3.348l1.373-0.14c-0.322,1.19-0.938,2.745-1.331,3.403L209.631,168.638z"
			/>
		<path d="M221.954,162.265c0,3.096-1.148,4.805-3.166,4.805c-1.778,0-2.983-1.667-3.012-4.679c0-3.054,1.317-4.734,3.166-4.734
			C220.861,157.657,221.954,159.366,221.954,162.265z M217.009,162.405c0,2.367,0.728,3.712,1.849,3.712
			c1.261,0,1.863-1.471,1.863-3.796c0-2.241-0.574-3.712-1.85-3.712C217.793,158.609,217.009,159.925,217.009,162.405z"/>
		<path d="M222.678,168.638c0.308-0.826,0.686-2.325,0.84-3.348l1.373-0.14c-0.322,1.19-0.938,2.745-1.331,3.403L222.678,168.638z"
			/>
		<path d="M229.047,166.187c0-0.519,0.35-0.883,0.84-0.883c0.491,0,0.827,0.364,0.827,0.883c0,0.504-0.322,0.883-0.841,0.883
			C229.383,167.07,229.047,166.691,229.047,166.187z"/>
		<path d="M237.043,158.679c-0.252-0.014-0.574,0-0.925,0.056c-1.933,0.322-2.955,1.737-3.165,3.236h0.042
			c0.434-0.574,1.19-1.051,2.199-1.051c1.61,0,2.745,1.162,2.745,2.941c0,1.667-1.135,3.208-3.025,3.208
			c-1.947,0-3.222-1.513-3.222-3.88c0-1.793,0.644-3.208,1.54-4.104c0.757-0.742,1.766-1.205,2.914-1.345
			c0.364-0.057,0.672-0.07,0.896-0.07V158.679z M236.693,163.932c0-1.303-0.742-2.087-1.877-2.087c-0.742,0-1.429,0.462-1.765,1.12
			c-0.084,0.14-0.14,0.322-0.14,0.546c0.027,1.499,0.714,2.605,2.003,2.605C235.979,166.117,236.693,165.235,236.693,163.932z"/>
		<path d="M244.225,158.679c-0.252-0.014-0.574,0-0.925,0.056c-1.933,0.322-2.955,1.737-3.165,3.236h0.042
			c0.434-0.574,1.19-1.051,2.199-1.051c1.61,0,2.745,1.162,2.745,2.941c0,1.667-1.135,3.208-3.025,3.208
			c-1.947,0-3.222-1.513-3.222-3.88c0-1.793,0.644-3.208,1.54-4.104c0.757-0.742,1.766-1.205,2.914-1.345
			c0.364-0.057,0.672-0.07,0.896-0.07V158.679z M243.875,163.932c0-1.303-0.742-2.087-1.877-2.087c-0.742,0-1.429,0.462-1.765,1.12
			c-0.084,0.14-0.14,0.322-0.14,0.546c0.027,1.499,0.714,2.605,2.003,2.605C243.161,166.117,243.875,165.235,243.875,163.932z"/>
		<path d="M245.803,168.638c0.309-0.826,0.687-2.325,0.841-3.348l1.373-0.14c-0.322,1.19-0.938,2.745-1.331,3.403L245.803,168.638z"
			/>
		<path d="M252.173,166.187c0-0.519,0.35-0.883,0.841-0.883c0.49,0,0.826,0.364,0.826,0.883c0,0.504-0.322,0.883-0.841,0.883
			C252.509,167.07,252.173,166.691,252.173,166.187z"/>
		<path d="M260.884,157.811v0.812l-3.965,8.293h-1.274l3.95-8.055v-0.027h-4.454v-1.022H260.884z"/>
		<path d="M267.589,158.847h-3.474l-0.351,2.339c0.21-0.027,0.406-0.056,0.742-0.056c0.7,0,1.401,0.154,1.961,0.49
			c0.715,0.406,1.303,1.19,1.303,2.339c0,1.779-1.414,3.11-3.39,3.11c-0.994,0-1.835-0.28-2.27-0.561l0.309-0.938
			c0.378,0.224,1.121,0.504,1.947,0.504c1.162,0,2.157-0.756,2.157-1.975c-0.015-1.177-0.799-2.018-2.62-2.018
			c-0.518,0-0.924,0.057-1.26,0.099l0.588-4.37h4.356V158.847z"/>
		<path d="M268.986,168.611c0.994-1.387,1.765-3.208,1.765-5.729c0-2.508-0.756-4.301-1.765-5.688h0.952
			c0.896,1.149,1.835,2.942,1.835,5.701c0,2.746-0.938,4.524-1.835,5.716H268.986z"/>
	</g>
	<g>
		<rect x="61.071" y="143.091" fill="none" width="96.059" height="10.047"/>
		<path d="M62.136,143.716c0.617-0.125,1.499-0.195,2.339-0.195c1.303,0,2.143,0.238,2.731,0.77
			c0.477,0.421,0.743,1.064,0.743,1.793c0,1.247-0.785,2.074-1.779,2.41v0.041c0.729,0.253,1.163,0.926,1.387,1.906
			c0.308,1.316,0.532,2.227,0.729,2.591h-1.261c-0.154-0.267-0.364-1.079-0.63-2.255c-0.28-1.303-0.784-1.793-1.891-1.836h-1.148
			v4.091h-1.219V143.716z M63.354,148.017h1.247c1.303,0,2.129-0.715,2.129-1.793c0-1.219-0.883-1.751-2.171-1.766
			c-0.588,0-1.008,0.057-1.205,0.113V148.017z"/>
		<path d="M76.896,152.611c-0.546,0.197-1.625,0.52-2.899,0.52c-1.429,0-2.605-0.365-3.53-1.247
			c-0.812-0.784-1.316-2.046-1.316-3.517c0.014-2.814,1.947-4.874,5.113-4.874c1.092,0,1.947,0.238,2.353,0.435l-0.294,0.994
			c-0.504-0.225-1.135-0.406-2.087-0.406c-2.297,0-3.796,1.429-3.796,3.796c0,2.396,1.443,3.81,3.642,3.81
			c0.798,0,1.345-0.111,1.625-0.252v-2.814h-1.919v-0.98h3.11V152.611z"/>
		<path d="M78.753,143.716c0.532-0.111,1.373-0.195,2.228-0.195c1.218,0,2.003,0.21,2.591,0.686c0.49,0.365,0.784,0.925,0.784,1.668
			c0,0.91-0.602,1.709-1.597,2.072v0.028c0.896,0.224,1.947,0.966,1.947,2.367c0,0.813-0.322,1.429-0.798,1.892
			c-0.658,0.602-1.723,0.882-3.264,0.882c-0.84,0-1.485-0.056-1.891-0.112V143.716z M79.972,147.583h1.106
			c1.289,0,2.045-0.673,2.045-1.584c0-1.105-0.84-1.541-2.073-1.541c-0.56,0-0.882,0.043-1.079,0.084V147.583z M79.972,152.107
			c0.238,0.043,0.588,0.057,1.022,0.057c1.261,0,2.423-0.463,2.423-1.836c0-1.288-1.106-1.82-2.437-1.82h-1.009V152.107z"/>
		<path d="M88.975,143.31c-1.023,1.373-1.765,3.194-1.765,5.729c0,2.493,0.771,4.286,1.765,5.687h-0.967
			c-0.882-1.162-1.835-2.955-1.835-5.687c0.014-2.759,0.953-4.552,1.835-5.729H88.975z"/>
		<path d="M92.559,145.076h-0.028l-1.583,0.854l-0.238-0.938l1.989-1.064h1.051v9.104h-1.191V145.076z"/>
		<path d="M96.659,154.755c0.308-0.827,0.687-2.326,0.84-3.349l1.373-0.14c-0.322,1.19-0.938,2.745-1.331,3.403L96.659,154.755z"/>
		<path d="M108.982,148.381c0,3.096-1.148,4.805-3.166,4.805c-1.779,0-2.984-1.667-3.012-4.679c0-3.054,1.316-4.734,3.166-4.734
			C107.889,143.773,108.982,145.482,108.982,148.381z M104.037,148.521c0,2.367,0.729,3.713,1.849,3.713
			c1.261,0,1.863-1.471,1.863-3.797c0-2.241-0.574-3.712-1.849-3.712C104.822,144.725,104.037,146.042,104.037,148.521z"/>
		<path d="M109.706,154.755c0.308-0.827,0.687-2.326,0.84-3.349l1.373-0.14c-0.322,1.19-0.938,2.745-1.331,3.403L109.706,154.755z"
			/>
		<path d="M122.029,148.381c0,3.096-1.148,4.805-3.166,4.805c-1.779,0-2.984-1.667-3.012-4.679c0-3.054,1.316-4.734,3.166-4.734
			C120.937,143.773,122.029,145.482,122.029,148.381z M117.084,148.521c0,2.367,0.729,3.713,1.849,3.713
			c1.261,0,1.863-1.471,1.863-3.797c0-2.241-0.574-3.712-1.849-3.712C117.869,144.725,117.084,146.042,117.084,148.521z"/>
		<path d="M122.753,154.755c0.308-0.827,0.687-2.326,0.84-3.349l1.373-0.14c-0.322,1.19-0.938,2.745-1.331,3.403L122.753,154.755z"
			/>
		<path d="M129.124,152.303c0-0.519,0.35-0.882,0.84-0.882s0.827,0.363,0.827,0.882c0,0.505-0.322,0.883-0.841,0.883
			C129.459,153.186,129.124,152.808,129.124,152.303z"/>
		<path d="M137.358,144.963h-3.474l-0.35,2.339c0.21-0.027,0.406-0.056,0.742-0.056c0.701,0,1.401,0.154,1.961,0.49
			c0.714,0.406,1.303,1.19,1.303,2.339c0,1.779-1.415,3.11-3.39,3.11c-0.995,0-1.835-0.28-2.269-0.561l0.308-0.938
			c0.378,0.225,1.121,0.504,1.947,0.504c1.163,0,2.157-0.756,2.157-1.975c-0.014-1.177-0.798-2.018-2.619-2.018
			c-0.519,0-0.925,0.057-1.261,0.099l0.588-4.37h4.356V144.963z"/>
		<path d="M138.755,154.726c0.995-1.387,1.765-3.207,1.765-5.729c0-2.508-0.756-4.301-1.765-5.688h0.953
			c0.896,1.148,1.835,2.941,1.835,5.701c0,2.746-0.938,4.525-1.835,5.715H138.755z"/>
	</g>
	<g>
	</g>
	<g>
	</g>
	<g>
	</g>
</g>
</svg>
