<?xml version="1.0" encoding="utf-8"?>
<!-- Generator: Adobe Illustrator 15.1.0, SVG Export Plug-In . SVG Version: 6.00 Build 0)  -->
<!DOCTYPE svg PUBLIC "-//W3C//DTD SVG 1.1//EN" "http://www.w3.org/Graphics/SVG/1.1/DTD/svg11.dtd">
<svg version="1.1" id="Layer_1" xmlns="http://www.w3.org/2000/svg" xmlns:xlink="http://www.w3.org/1999/xlink" x="0px" y="0px"
	 width="278.714px" height="232.931px" viewBox="0 0 278.714 232.931" enable-background="new 0 0 278.714 232.931"
	 xml:space="preserve">
<rect x="3.688" y="13.473" fill="#FF0000" width="107.456" height="67.382"/>
<g>
	<rect x="14.968" fill="none" width="82.896" height="10.047"/>
	<path d="M16.032,0.625c0.617-0.112,1.513-0.196,2.339-0.196c1.303,0,2.157,0.252,2.731,0.771c0.462,0.42,0.743,1.064,0.743,1.807
		c0,1.232-0.785,2.059-1.765,2.395v0.042c0.714,0.252,1.148,0.925,1.373,1.905c0.308,1.316,0.532,2.227,0.729,2.591h-1.261
		c-0.154-0.28-0.364-1.079-0.616-2.255c-0.28-1.303-0.798-1.793-1.905-1.835h-1.148v4.09h-1.219V0.625z M17.251,4.925h1.247
		c1.303,0,2.129-0.714,2.129-1.793c0-1.219-0.883-1.751-2.171-1.751c-0.588,0-0.995,0.042-1.205,0.098V4.925z"/>
	<path d="M30.806,9.52c-0.546,0.21-1.639,0.519-2.914,0.519c-1.429,0-2.605-0.364-3.53-1.247c-0.812-0.785-1.316-2.045-1.316-3.516
		c0-2.815,1.947-4.875,5.113-4.875c1.092,0,1.961,0.238,2.367,0.434L30.218,1.83c-0.504-0.238-1.135-0.406-2.087-0.406
		c-2.297,0-3.796,1.429-3.796,3.796c0,2.396,1.429,3.81,3.642,3.81c0.798,0,1.345-0.112,1.625-0.252V5.962h-1.905v-0.98h3.11V9.52z"
		/>
	<path d="M32.65,0.639c0.532-0.126,1.387-0.21,2.228-0.21c1.218,0,2.003,0.21,2.577,0.687c0.49,0.364,0.798,0.924,0.798,1.667
		c0,0.924-0.616,1.723-1.597,2.073v0.042c0.896,0.21,1.947,0.953,1.947,2.354c0,0.813-0.322,1.443-0.812,1.891
		c-0.645,0.602-1.709,0.882-3.25,0.882c-0.84,0-1.485-0.056-1.891-0.112V0.639z M33.869,4.505h1.106
		c1.275,0,2.031-0.686,2.031-1.597c0-1.093-0.826-1.541-2.059-1.541c-0.56,0-0.882,0.042-1.079,0.084V4.505z M33.869,9.016
		c0.252,0.042,0.588,0.056,1.022,0.056c1.261,0,2.423-0.462,2.423-1.835c0-1.274-1.106-1.821-2.437-1.821h-1.009V9.016z"/>
	<path d="M42.857,0.219c-1.022,1.387-1.751,3.194-1.751,5.743c0,2.493,0.771,4.272,1.751,5.673h-0.953
		c-0.882-1.163-1.835-2.956-1.835-5.687c0.014-2.746,0.953-4.552,1.835-5.729H42.857z"/>
	<path d="M43.78,9.94V9.184l0.966-0.938c2.326-2.213,3.39-3.39,3.39-4.763c0-0.924-0.435-1.779-1.793-1.779
		c-0.827,0-1.513,0.42-1.933,0.771l-0.392-0.869c0.616-0.518,1.527-0.924,2.563-0.924c1.961,0,2.788,1.345,2.788,2.647
		c0,1.681-1.219,3.04-3.138,4.888l-0.714,0.672v0.028h4.076V9.94H43.78z"/>
	<path d="M56.396,1.872h-3.474l-0.35,2.339c0.21-0.028,0.406-0.042,0.742-0.042c0.714,0,1.401,0.14,1.961,0.49
		c0.714,0.392,1.303,1.19,1.303,2.325c0,1.779-1.415,3.11-3.39,3.11c-0.995,0-1.821-0.28-2.269-0.561l0.308-0.938
		C51.606,8.819,52.348,9.1,53.188,9.1c1.149,0,2.157-0.756,2.143-1.975c0-1.177-0.798-2.003-2.605-2.003
		c-0.533,0-0.939,0.042-1.275,0.084l0.588-4.371h4.356V1.872z"/>
	<path d="M63.578,1.872h-3.474l-0.35,2.339c0.21-0.028,0.406-0.042,0.742-0.042c0.714,0,1.401,0.14,1.961,0.49
		c0.714,0.392,1.303,1.19,1.303,2.325c0,1.779-1.415,3.11-3.39,3.11c-0.995,0-1.821-0.28-2.269-0.561l0.308-0.938
		C58.788,8.819,59.53,9.1,60.37,9.1c1.149,0,2.157-0.756,2.143-1.975c0-1.177-0.798-2.003-2.605-2.003
		c-0.533,0-0.939,0.042-1.275,0.084l0.588-4.371h4.356V1.872z"/>
	<path d="M64.918,11.677c0.308-0.84,0.687-2.339,0.84-3.362l1.373-0.14c-0.336,1.191-0.953,2.746-1.345,3.404L64.918,11.677z"/>
	<path d="M77.256,5.29c0,3.096-1.163,4.805-3.166,4.805c-1.779,0-2.998-1.667-3.025-4.679c0-3.068,1.331-4.734,3.18-4.734
		C76.149,0.681,77.256,2.39,77.256,5.29z M72.311,5.43c0,2.367,0.729,3.712,1.849,3.712c1.247,0,1.849-1.471,1.849-3.796
		c0-2.241-0.56-3.712-1.849-3.712C73.095,1.633,72.311,2.95,72.311,5.43z"/>
	<path d="M77.966,11.677c0.308-0.84,0.687-2.339,0.84-3.362l1.373-0.14c-0.336,1.191-0.953,2.746-1.345,3.404L77.966,11.677z"/>
	<path d="M90.303,5.29c0,3.096-1.163,4.805-3.166,4.805c-1.779,0-2.998-1.667-3.025-4.679c0-3.068,1.331-4.734,3.18-4.734
		C89.196,0.681,90.303,2.39,90.303,5.29z M85.358,5.43c0,2.367,0.729,3.712,1.849,3.712c1.247,0,1.849-1.471,1.849-3.796
		c0-2.241-0.56-3.712-1.849-3.712C86.143,1.633,85.358,2.95,85.358,5.43z"/>
	<path d="M91.069,11.635c0.98-1.387,1.751-3.194,1.751-5.715c0-2.521-0.756-4.3-1.751-5.701h0.953
		c0.882,1.148,1.835,2.956,1.835,5.701c-0.014,2.745-0.953,4.538-1.835,5.715H91.069z"/>
</g>
<rect x="156.066" y="22.393" fill="#0000FF" fill-opacity="0.5" width="78.53" height="41.446"/>
<g>
	<rect x="145.947" y="6.715" fill="none" width="100.768" height="10.046"/>
	<path d="M147.011,7.34c0.616-0.112,1.513-0.196,2.34-0.196c1.303,0,2.156,0.252,2.731,0.771c0.462,0.42,0.742,1.064,0.742,1.807
		c0,1.232-0.784,2.059-1.766,2.395v0.042c0.715,0.252,1.149,0.925,1.373,1.905c0.309,1.316,0.532,2.227,0.729,2.591H151.9
		c-0.154-0.28-0.364-1.079-0.616-2.255c-0.28-1.303-0.799-1.793-1.905-1.835h-1.148v4.09h-1.219V7.34z M148.23,11.641h1.247
		c1.303,0,2.129-0.714,2.129-1.793c0-1.219-0.883-1.751-2.171-1.751c-0.589,0-0.995,0.042-1.205,0.098V11.641z"/>
	<path d="M161.786,16.235c-0.547,0.21-1.639,0.519-2.914,0.519c-1.429,0-2.605-0.364-3.529-1.247
		c-0.813-0.785-1.317-2.045-1.317-3.516c0-2.815,1.947-4.875,5.113-4.875c1.093,0,1.961,0.238,2.367,0.434l-0.309,0.995
		c-0.504-0.238-1.134-0.406-2.087-0.406c-2.297,0-3.796,1.429-3.796,3.796c0,2.396,1.429,3.81,3.642,3.81
		c0.799,0,1.345-0.112,1.625-0.252v-2.815h-1.905v-0.98h3.11V16.235z"/>
	<path d="M163.629,7.354c0.532-0.126,1.387-0.21,2.228-0.21c1.219,0,2.003,0.21,2.577,0.687c0.49,0.364,0.799,0.924,0.799,1.667
		c0,0.924-0.616,1.723-1.598,2.073v0.042c0.896,0.21,1.947,0.952,1.947,2.353c0,0.813-0.322,1.443-0.813,1.891
		c-0.645,0.602-1.709,0.882-3.249,0.882c-0.841,0-1.485-0.056-1.892-0.112V7.354z M164.848,11.22h1.106
		c1.274,0,2.031-0.686,2.031-1.597c0-1.093-0.826-1.541-2.059-1.541c-0.561,0-0.883,0.042-1.079,0.084V11.22z M164.848,15.731
		c0.252,0.042,0.588,0.056,1.022,0.056c1.261,0,2.424-0.462,2.424-1.835c0-1.274-1.107-1.821-2.438-1.821h-1.009V15.731z"/>
	<path d="M173.836,6.934c-1.022,1.387-1.751,3.194-1.751,5.743c0,2.493,0.771,4.272,1.751,5.673h-0.952
		c-0.883-1.163-1.835-2.956-1.835-5.687c0.014-2.746,0.952-4.552,1.835-5.729H173.836z"/>
	<path d="M180.824,12.005c0,3.096-1.162,4.805-3.165,4.805c-1.779,0-2.998-1.667-3.026-4.679c0-3.068,1.331-4.734,3.18-4.734
		C179.717,7.396,180.824,9.105,180.824,12.005z M175.879,12.145c0,2.367,0.729,3.712,1.849,3.712c1.247,0,1.85-1.471,1.85-3.796
		c0-2.241-0.561-3.712-1.85-3.712C176.664,8.349,175.879,9.666,175.879,12.145z"/>
	<path d="M181.535,18.392c0.308-0.84,0.686-2.339,0.84-3.362l1.373-0.14c-0.336,1.191-0.953,2.746-1.345,3.404L181.535,18.392z"/>
	<path d="M193.871,12.005c0,3.096-1.162,4.805-3.165,4.805c-1.779,0-2.998-1.667-3.026-4.679c0-3.068,1.331-4.734,3.18-4.734
		C192.764,7.396,193.871,9.105,193.871,12.005z M188.926,12.145c0,2.367,0.729,3.712,1.849,3.712c1.247,0,1.85-1.471,1.85-3.796
		c0-2.241-0.561-3.712-1.85-3.712C189.71,8.349,188.926,9.666,188.926,12.145z"/>
	<path d="M194.582,18.392c0.308-0.84,0.686-2.339,0.84-3.362l1.373-0.14c-0.336,1.191-0.953,2.746-1.345,3.404L194.582,18.392z"/>
	<path d="M200.852,16.655v-0.756l0.967-0.938c2.325-2.213,3.39-3.39,3.39-4.763c0-0.924-0.434-1.779-1.793-1.779
		c-0.826,0-1.513,0.42-1.933,0.771l-0.393-0.869c0.616-0.519,1.527-0.924,2.563-0.924c1.961,0,2.788,1.345,2.788,2.647
		c0,1.681-1.219,3.04-3.138,4.889l-0.715,0.672v0.028h4.076v1.022H200.852z"/>
	<path d="M213.469,8.587h-3.474l-0.351,2.339c0.21-0.028,0.406-0.042,0.742-0.042c0.715,0,1.401,0.14,1.961,0.49
		c0.715,0.392,1.303,1.19,1.303,2.325c0,1.779-1.414,3.11-3.39,3.11c-0.994,0-1.821-0.28-2.27-0.561l0.309-0.938
		c0.378,0.224,1.121,0.504,1.961,0.504c1.148,0,2.157-0.756,2.144-1.975c0-1.177-0.799-2.003-2.605-2.003
		c-0.532,0-0.938,0.042-1.274,0.084l0.588-4.371h4.356V8.587z"/>
	<path d="M220.651,8.587h-3.474l-0.351,2.339c0.21-0.028,0.406-0.042,0.742-0.042c0.715,0,1.401,0.14,1.961,0.49
		c0.715,0.392,1.303,1.19,1.303,2.325c0,1.779-1.414,3.11-3.39,3.11c-0.994,0-1.821-0.28-2.27-0.561l0.309-0.938
		c0.378,0.224,1.121,0.504,1.961,0.504c1.148,0,2.157-0.756,2.144-1.975c0-1.177-0.799-2.003-2.605-2.003
		c-0.532,0-0.938,0.042-1.274,0.084l0.588-4.371h4.356V8.587z"/>
	<path d="M221.992,18.392c0.308-0.84,0.686-2.339,0.84-3.362l1.373-0.14c-0.336,1.191-0.953,2.746-1.345,3.404L221.992,18.392z"/>
	<path d="M228.361,15.927c0-0.504,0.35-0.882,0.84-0.882c0.491,0,0.827,0.364,0.827,0.882c0,0.504-0.336,0.883-0.854,0.883
		C228.697,16.81,228.361,16.431,228.361,15.927z"/>
	<path d="M236.595,8.587h-3.474l-0.351,2.339c0.21-0.028,0.406-0.042,0.742-0.042c0.715,0,1.401,0.14,1.961,0.49
		c0.715,0.392,1.303,1.19,1.303,2.325c0,1.779-1.414,3.11-3.39,3.11c-0.994,0-1.821-0.28-2.27-0.561l0.309-0.938
		c0.378,0.224,1.12,0.504,1.961,0.504c1.148,0,2.157-0.756,2.144-1.975c0-1.177-0.799-2.003-2.605-2.003
		c-0.532,0-0.938,0.042-1.275,0.084l0.589-4.371h4.356V8.587z"/>
	<path d="M237.992,18.35c0.98-1.387,1.751-3.194,1.751-5.715c0-2.521-0.757-4.3-1.751-5.701h0.952
		c0.883,1.148,1.835,2.956,1.835,5.701c-0.014,2.745-0.952,4.538-1.835,5.715H237.992z"/>
</g>
<g>
	<path d="M131.017,40.861v3.063h2.945v0.782h-2.945v3.088h-0.834v-3.088h-2.945v-0.782h2.945v-3.063H131.017z"/>
</g>
<g>
	<g>
		<line fill="none" stroke="#000000" stroke-miterlimit="10" x1="130.431" y1="82.615" x2="130.431" y2="135.042"/>
		<g>
			<path d="M130.431,141.077c-1.054-2.84-2.852-6.363-4.756-8.548l4.756,1.721l4.755-1.721
				C133.282,134.713,131.484,138.237,130.431,141.077z"/>
		</g>
	</g>
</g>
<rect x="75.864" y="156.544" fill="#FF0000" width="107.457" height="67.383"/>
<g>
	<rect x="86.422" y="143.184" fill="none" width="86.34" height="10.046"/>
	<path d="M87.487,143.808c0.616-0.111,1.513-0.195,2.339-0.195c1.303,0,2.157,0.252,2.731,0.77c0.462,0.421,0.743,1.065,0.743,1.808
		c0,1.232-0.785,2.059-1.765,2.396v0.042c0.714,0.252,1.148,0.924,1.373,1.904c0.308,1.317,0.532,2.228,0.729,2.592h-1.261
		c-0.154-0.28-0.364-1.078-0.616-2.255c-0.28-1.303-0.798-1.793-1.905-1.835h-1.148v4.09h-1.219V143.808z M88.706,148.109h1.247
		c1.303,0,2.129-0.715,2.129-1.793c0-1.219-0.883-1.751-2.171-1.751c-0.588,0-0.995,0.042-1.205,0.098V148.109z"/>
	<path d="M102.261,152.704c-0.546,0.21-1.639,0.518-2.914,0.518c-1.429,0-2.605-0.364-3.53-1.246
		c-0.813-0.784-1.316-2.045-1.316-3.516c0-2.816,1.947-4.875,5.113-4.875c1.092,0,1.961,0.238,2.367,0.435l-0.308,0.994
		c-0.504-0.238-1.135-0.406-2.087-0.406c-2.297,0-3.796,1.429-3.796,3.796c0,2.396,1.429,3.811,3.642,3.811
		c0.798,0,1.345-0.112,1.625-0.253v-2.815h-1.905v-0.98h3.11V152.704z"/>
	<path d="M104.104,143.823c0.532-0.126,1.387-0.21,2.228-0.21c1.218,0,2.003,0.21,2.577,0.686c0.49,0.364,0.798,0.925,0.798,1.667
		c0,0.925-0.616,1.724-1.597,2.073v0.042c0.896,0.21,1.947,0.953,1.947,2.354c0,0.813-0.322,1.442-0.812,1.891
		c-0.645,0.603-1.709,0.883-3.25,0.883c-0.84,0-1.485-0.056-1.891-0.112V143.823z M105.323,147.689h1.106
		c1.275,0,2.031-0.687,2.031-1.598c0-1.092-0.827-1.54-2.059-1.54c-0.561,0-0.882,0.042-1.079,0.084V147.689z M105.323,152.199
		c0.252,0.042,0.588,0.057,1.022,0.057c1.261,0,2.423-0.463,2.423-1.835c0-1.275-1.106-1.821-2.437-1.821h-1.009V152.199z"/>
	<path d="M114.312,143.402c-1.022,1.387-1.751,3.194-1.751,5.743c0,2.494,0.771,4.272,1.751,5.674h-0.953
		c-0.882-1.163-1.835-2.956-1.835-5.688c0.014-2.745,0.953-4.553,1.835-5.729H114.312z"/>
	<path d="M115.234,153.124v-0.757l0.966-0.938c2.325-2.213,3.39-3.39,3.39-4.762c0-0.925-0.435-1.779-1.793-1.779
		c-0.827,0-1.513,0.42-1.933,0.771l-0.392-0.869c0.616-0.518,1.527-0.924,2.563-0.924c1.961,0,2.788,1.345,2.788,2.647
		c0,1.681-1.219,3.039-3.138,4.889l-0.714,0.672v0.028h4.076v1.022H115.234z"/>
	<path d="M127.851,145.055h-3.474l-0.35,2.339c0.21-0.027,0.406-0.042,0.742-0.042c0.715,0,1.401,0.141,1.961,0.49
		c0.714,0.393,1.303,1.191,1.303,2.325c0,1.779-1.415,3.11-3.39,3.11c-0.995,0-1.821-0.28-2.269-0.561l0.308-0.938
		c0.378,0.225,1.121,0.504,1.961,0.504c1.149,0,2.157-0.756,2.143-1.975c0-1.177-0.798-2.003-2.605-2.003
		c-0.533,0-0.938,0.042-1.275,0.084l0.588-4.37h4.356V145.055z"/>
	<path d="M135.033,145.055h-3.474l-0.35,2.339c0.21-0.027,0.406-0.042,0.742-0.042c0.715,0,1.401,0.141,1.961,0.49
		c0.714,0.393,1.303,1.191,1.303,2.325c0,1.779-1.415,3.11-3.39,3.11c-0.995,0-1.821-0.28-2.269-0.561l0.308-0.938
		c0.378,0.225,1.121,0.504,1.961,0.504c1.149,0,2.157-0.756,2.143-1.975c0-1.177-0.798-2.003-2.605-2.003
		c-0.533,0-0.938,0.042-1.275,0.084l0.588-4.37h4.356V145.055z"/>
	<path d="M136.373,154.861c0.308-0.841,0.687-2.34,0.84-3.362l1.373-0.14c-0.336,1.19-0.953,2.745-1.345,3.403L136.373,154.861z"/>
	<path d="M148.71,148.473c0,3.096-1.162,4.805-3.165,4.805c-1.779,0-2.998-1.667-3.026-4.679c0-3.067,1.331-4.734,3.18-4.734
		C147.604,143.865,148.71,145.574,148.71,148.473z M143.766,148.613c0,2.367,0.729,3.712,1.849,3.712c1.247,0,1.85-1.471,1.85-3.796
		c0-2.241-0.561-3.712-1.85-3.712C144.55,144.817,143.766,146.133,143.766,148.613z"/>
	<path d="M149.42,154.861c0.309-0.841,0.687-2.34,0.841-3.362l1.373-0.14c-0.336,1.19-0.953,2.745-1.345,3.403L149.42,154.861z"/>
	<path d="M161.757,148.473c0,3.096-1.162,4.805-3.165,4.805c-1.779,0-2.998-1.667-3.026-4.679c0-3.067,1.331-4.734,3.18-4.734
		C160.651,143.865,161.757,145.574,161.757,148.473z M156.813,148.613c0,2.367,0.729,3.712,1.849,3.712
		c1.247,0,1.85-1.471,1.85-3.796c0-2.241-0.561-3.712-1.85-3.712C157.597,144.817,156.813,146.133,156.813,148.613z"/>
	<path d="M162.524,154.819c0.98-1.387,1.751-3.194,1.751-5.716s-0.757-4.3-1.751-5.701h0.952c0.883,1.149,1.835,2.956,1.835,5.701
		c-0.014,2.746-0.952,4.539-1.835,5.716H162.524z"/>
</g>
<rect x="90.328" y="169.512" opacity="0.5" fill="#0000FF" width="78.529" height="41.446"/>
<g>
	<g>
		<path fill="none" stroke="#000000" stroke-miterlimit="10" d="M210.723,169.512c0,12.35-15.264,22.554-35.177,24.29"/>
		<g>
			<path d="M169.514,194.063c2.781-1.199,6.207-3.177,8.29-5.191l-1.472,4.838l1.964,4.66
				C176.016,196.581,172.405,194.967,169.514,194.063z"/>
		</g>
	</g>
</g>
<g>
	<rect x="184.457" y="156.976" fill="none" width="96.75" height="10.047"/>
	<path d="M185.521,157.6c0.616-0.111,1.513-0.195,2.34-0.195c1.302,0,2.156,0.252,2.731,0.771c0.462,0.42,0.742,1.064,0.742,1.807
		c0,1.232-0.784,2.059-1.766,2.396v0.042c0.715,0.252,1.149,0.924,1.373,1.904c0.309,1.317,0.532,2.228,0.729,2.592h-1.261
		c-0.154-0.28-0.364-1.078-0.616-2.255c-0.28-1.303-0.799-1.793-1.905-1.835h-1.148v4.09h-1.219V157.6z M186.74,161.901h1.247
		c1.303,0,2.129-0.715,2.129-1.793c0-1.219-0.883-1.751-2.171-1.751c-0.589,0-0.995,0.042-1.205,0.098V161.901z"/>
	<path d="M200.295,166.496c-0.547,0.21-1.639,0.518-2.914,0.518c-1.429,0-2.605-0.364-3.529-1.246
		c-0.813-0.784-1.317-2.045-1.317-3.516c0-2.816,1.947-4.875,5.113-4.875c1.093,0,1.961,0.238,2.367,0.435l-0.309,0.994
		c-0.504-0.238-1.134-0.406-2.087-0.406c-2.297,0-3.796,1.429-3.796,3.796c0,2.396,1.429,3.811,3.642,3.811
		c0.799,0,1.345-0.112,1.625-0.253v-2.815h-1.904v-0.98h3.109V166.496z"/>
	<path d="M202.139,157.615c0.532-0.126,1.387-0.21,2.228-0.21c1.219,0,2.003,0.21,2.577,0.686c0.49,0.364,0.799,0.925,0.799,1.667
		c0,0.925-0.617,1.724-1.598,2.073v0.042c0.896,0.21,1.947,0.953,1.947,2.354c0,0.813-0.322,1.442-0.813,1.891
		c-0.645,0.603-1.709,0.883-3.249,0.883c-0.841,0-1.485-0.056-1.892-0.112V157.615z M203.358,161.481h1.106
		c1.274,0,2.031-0.687,2.031-1.598c0-1.092-0.826-1.54-2.06-1.54c-0.56,0-0.882,0.042-1.078,0.084V161.481z M203.358,165.991
		c0.252,0.042,0.588,0.057,1.022,0.057c1.261,0,2.424-0.463,2.424-1.835c0-1.275-1.107-1.821-2.438-1.821h-1.009V165.991z"/>
	<path d="M212.346,157.194c-1.022,1.387-1.751,3.194-1.751,5.743c0,2.494,0.771,4.272,1.751,5.674h-0.952
		c-0.883-1.163-1.835-2.956-1.835-5.688c0.014-2.745,0.952-4.553,1.835-5.729H212.346z"/>
	<path d="M215.944,158.959h-0.028l-1.582,0.854l-0.238-0.938l1.989-1.064h1.05v9.104h-1.19V158.959z"/>
	<path d="M220.45,166.916v-0.757l0.967-0.938c2.325-2.213,3.39-3.39,3.39-4.762c0-0.925-0.434-1.779-1.793-1.779
		c-0.826,0-1.513,0.42-1.933,0.771l-0.393-0.869c0.616-0.518,1.527-0.924,2.563-0.924c1.961,0,2.788,1.345,2.788,2.647
		c0,1.681-1.219,3.039-3.138,4.889l-0.715,0.672v0.028h4.076v1.022H220.45z"/>
	<path d="M233.543,157.811v0.812l-3.965,8.293h-1.274l3.95-8.055v-0.027H227.8v-1.022H233.543z"/>
	<path d="M234.407,168.653c0.309-0.841,0.687-2.34,0.841-3.362l1.373-0.14c-0.336,1.19-0.953,2.745-1.345,3.403L234.407,168.653z"/>
	<path d="M246.744,162.265c0,3.096-1.162,4.805-3.165,4.805c-1.779,0-2.998-1.667-3.026-4.679c0-3.067,1.331-4.734,3.18-4.734
		C245.637,157.657,246.744,159.366,246.744,162.265z M241.799,162.405c0,2.367,0.729,3.712,1.849,3.712
		c1.247,0,1.85-1.471,1.85-3.796c0-2.241-0.561-3.712-1.85-3.712C242.583,158.609,241.799,159.925,241.799,162.405z"/>
	<path d="M247.454,168.653c0.309-0.841,0.687-2.34,0.841-3.362l1.373-0.14c-0.336,1.19-0.953,2.745-1.345,3.403L247.454,168.653z"/>
	<path d="M256.401,158.959h-0.028l-1.582,0.854l-0.238-0.938l1.989-1.064h1.05v9.104h-1.19V158.959z"/>
	<path d="M260.907,166.916v-0.757l0.967-0.938c2.325-2.213,3.39-3.39,3.39-4.762c0-0.925-0.434-1.779-1.793-1.779
		c-0.826,0-1.513,0.42-1.933,0.771l-0.393-0.869c0.616-0.518,1.527-0.924,2.563-0.924c1.961,0,2.788,1.345,2.788,2.647
		c0,1.681-1.219,3.039-3.138,4.889l-0.715,0.672v0.028h4.076v1.022H260.907z"/>
	<path d="M274,157.811v0.812l-3.965,8.293h-1.274l3.95-8.055v-0.027h-4.454v-1.022H274z"/>
	<path d="M274.92,168.611c0.98-1.387,1.751-3.194,1.751-5.716s-0.757-4.3-1.751-5.701h0.952c0.883,1.149,1.835,2.956,1.835,5.701
		c-0.014,2.746-0.952,4.539-1.835,5.716H274.92z"/>
</g>
</svg>
